<svg width="19" height="20" viewBox="0 0 19 20" fill="none" xmlns="http://www.w3.org/2000/svg">
<path d="M9.49992 0.5C12.1232 0.5 14.4982 1.56334 16.2174 3.28243C17.9367 5.00152 19 7.37668 19 9.99985C19 12.6233 17.9367 14.9983 16.2174 16.7174C14.4982 18.4365 12.1232 19.5 9.49992 19.5C6.87662 19.5 4.50164 18.4367 2.78256 16.7176C1.06348 14.9985 0 12.6233 0 9.99985C0 7.37668 1.06333 5.00152 2.78256 3.28243C4.50179 1.56334 6.87662 0.5 9.49992 0.5ZM5.34309 10.8874C5.14007 10.7037 5.1243 10.3901 5.30814 10.1871C5.49183 9.98407 5.80541 9.9683 6.00842 10.152L8.08669 12.0365L12.9639 6.92843C13.153 6.72958 13.4677 6.72185 13.6663 6.9108C13.865 7.0999 13.8729 7.4144 13.6838 7.61309L8.47216 13.0716L8.47154 13.071C8.28677 13.2653 7.97953 13.2778 7.77961 13.0969L5.34309 10.8874ZM15.5131 3.98674C13.9742 2.44793 11.8482 1.49592 9.49992 1.49592C7.15154 1.49592 5.0255 2.44778 3.48671 3.98658C1.94776 5.52554 0.996069 7.65144 0.996069 9.99985C0.996069 12.3483 1.94792 14.4743 3.48671 16.0133C5.0255 17.5521 7.15154 18.5039 9.49992 18.5039C11.8482 18.5039 13.9742 17.5521 15.5131 16.0133C17.0521 14.4743 18.0036 12.3484 18.0036 9.99985C18.0038 7.6516 17.0521 5.52554 15.5131 3.98674Z" fill="black"/>
</svg>
