<?xml version="1.0" standalone="no"?>
<!DOCTYPE svg PUBLIC "-//W3C//DTD SVG 20010904//EN"
 "http://www.w3.org/TR/2001/REC-SVG-20010904/DTD/svg10.dtd">
<svg version="1.0" xmlns="http://www.w3.org/2000/svg"
 width="700.000000pt" height="597.000000pt" viewBox="0 0 700.000000 597.000000"
 preserveAspectRatio="xMidYMid meet">

<g transform="translate(0.000000,597.000000) scale(0.100000,-0.100000)"
fill="#000000" stroke="none">
<path d="M5116 5810 c-288 -33 -540 -166 -693 -365 -71 -92 -147 -249 -173
-355 -30 -126 -37 -266 -16 -312 29 -61 58 -68 268 -68 125 0 191 4 207 13 47
24 64 60 71 154 14 194 127 322 326 369 102 24 327 15 407 -15 89 -35 137 -77
177 -155 34 -67 35 -73 35 -180 0 -102 -2 -115 -28 -167 -39 -77 -134 -186
-247 -287 -292 -258 -360 -333 -430 -477 -55 -114 -70 -180 -76 -340 -5 -130
-4 -142 15 -173 12 -18 33 -37 47 -42 14 -6 112 -10 217 -10 173 0 195 2 224
20 40 24 53 67 53 180 0 133 29 175 246 360 294 249 428 422 505 650 62 185
49 452 -34 650 -122 294 -348 472 -680 535 -101 19 -317 27 -421 15z"/>
<path d="M2591 4935 c-100 -23 -159 -44 -253 -92 -297 -152 -506 -443 -574
-801 -20 -102 -22 -314 -5 -413 77 -452 378 -799 790 -911 109 -30 353 -30
462 0 480 131 801 572 801 1102 0 84 -6 168 -16 222 -81 427 -366 758 -753
874 -74 22 -111 27 -238 30 -106 3 -169 -1 -214 -11z"/>
<path d="M5113 3122 c-100 -36 -171 -101 -215 -199 -34 -74 -32 -208 3 -284
36 -76 86 -129 161 -170 60 -32 68 -34 163 -34 87 0 107 3 155 26 104 49 178
147 199 265 28 150 -57 314 -198 381 -75 35 -192 42 -268 15z"/>
<path d="M1600 2425 c-304 -137 -388 -192 -542 -355 -189 -199 -303 -444 -337
-725 -14 -118 -14 -762 0 -841 34 -187 186 -339 373 -373 81 -15 3300 -15
3377 -1 121 23 257 116 316 218 60 102 63 126 63 567 0 450 -5 503 -66 685
-67 199 -182 380 -332 521 -130 123 -246 195 -477 297 -49 22 -119 53 -155 70
l-65 29 -95 -68 c-170 -123 -376 -214 -588 -262 -142 -31 -442 -31 -589 1
-135 29 -255 73 -383 138 -92 47 -141 78 -266 170 l-29 21 -205 -92z"/>
</g>
</svg>
