<svg width="24" height="24" viewBox="0 0 24 24" fill="none" xmlns="http://www.w3.org/2000/svg">
<g clip-path="url(#clip0_343_16874)">
<path fill-rule="evenodd" clip-rule="evenodd" d="M9.75012 3C9.15338 3 8.58109 3.23705 8.15913 3.65901C7.73718 4.08097 7.50012 4.65326 7.50012 5.25V6H3.75012C2.92169 6 2.25012 6.67157 2.25012 7.5V11.8264C2.24996 11.8354 2.24996 11.8445 2.25012 11.8535V19.5C2.25012 20.3284 2.92169 21 3.75012 21H20.2501C21.0785 21 21.7501 20.3284 21.7501 19.5V11.8537C21.7503 11.8445 21.7503 11.8354 21.7501 11.8262V7.5C21.7501 6.67157 21.0785 6 20.2501 6H16.5001V5.25C16.5001 4.65326 16.2631 4.08097 15.8411 3.65901C15.4192 3.23705 14.8469 3 14.2501 3H9.75012ZM3.75012 19.5V13.0922C6.31173 14.3518 9.13464 15.0073 12.0006 15C14.8659 15.0032 17.6878 14.3474 20.2501 13.0905V19.5H3.75012ZM12.001 13.5C14.8854 13.5034 17.7219 12.7808 20.2501 11.4018V7.5H15.7501H8.25012H3.75012V11.4025C6.27655 12.7849 9.11365 13.5075 11.9982 13.5L12.001 13.5ZM15.0001 6V5.25C15.0001 5.05109 14.9211 4.86032 14.7805 4.71967C14.6398 4.57902 14.449 4.5 14.2501 4.5H9.75012C9.55121 4.5 9.36044 4.57902 9.21979 4.71967C9.07914 4.86032 9.00012 5.05109 9.00012 5.25V6H15.0001ZM10.8751 10.5C10.4609 10.5 10.1251 10.8358 10.1251 11.25C10.1251 11.6642 10.4609 12 10.8751 12H13.1251C13.5393 12 13.8751 11.6642 13.8751 11.25C13.8751 10.8358 13.5393 10.5 13.1251 10.5H10.8751Z" fill="black"/>
</g>
<defs>
<clipPath id="clip0_343_16874">
<rect width="24" height="24" fill="white"/>
</clipPath>
</defs>
</svg>
