<svg width="19" height="21" viewBox="0 0 19 21" fill="#A8D6DA" xmlns="http://www.w3.org/2000/svg">
<path fill-rule="evenodd" clip-rule="evenodd" d="M5.67412 0.948242C5.72969 0.948242 5.85474 0.987743 5.94737 1.03163C6.04463 1.07552 6.16041 1.15014 6.2021 1.19403C6.24841 1.24231 6.31325 1.35642 6.3503 1.45298C6.40125 1.58026 6.41977 1.83043 6.4244 3.09885H12.8157V2.33956C12.8157 1.6417 12.825 1.57148 12.9176 1.38714C12.9778 1.27742 13.0982 1.14575 13.1862 1.08869C13.2742 1.03163 13.3993 0.974576 13.4641 0.961409C13.529 0.948242 13.654 0.961409 13.742 0.992132C13.83 1.02286 13.955 1.07991 14.0199 1.1238C14.0847 1.1633 14.1727 1.26864 14.2144 1.36081C14.2839 1.49248 14.2978 1.64609 14.2978 3.14274L14.6775 3.19102C14.8906 3.21736 15.2379 3.28758 15.4556 3.34464C15.6733 3.40608 15.9743 3.50703 16.1272 3.57726C16.28 3.64309 16.5347 3.77915 16.6922 3.8801C16.8543 3.98104 17.0998 4.17416 17.2387 4.30583C17.3776 4.4375 17.5722 4.66134 17.6741 4.7974C17.7713 4.93785 17.901 5.14852 17.9658 5.27141C18.0307 5.38991 18.1372 5.64887 18.202 5.84198C18.2715 6.0351 18.3549 6.37305 18.3965 6.58811C18.4336 6.80317 18.466 7.05774 18.466 7.14552C18.466 7.26841 18.429 7.3518 18.1974 7.59758H1.04273L0.908415 7.45275C0.811156 7.3518 0.774104 7.26841 0.774104 7.14552C0.774104 7.05774 0.806524 6.80317 0.843575 6.58811C0.885258 6.37305 0.968623 6.0351 1.03809 5.84198C1.10293 5.64887 1.20946 5.38991 1.27429 5.27141C1.33913 5.14852 1.46881 4.93785 1.56607 4.7974C1.66796 4.66134 1.86248 4.4375 2.00142 4.30583C2.14037 4.17416 2.38583 3.98104 2.5433 3.8801C2.70539 3.77915 2.96475 3.64309 3.12222 3.57287C3.28432 3.50703 3.58536 3.4017 3.79377 3.34464C4.00682 3.28758 4.34954 3.21736 4.94236 3.14274L4.95162 2.27372C4.96551 1.46614 4.97015 1.40031 5.0674 1.27303C5.12298 1.19403 5.25729 1.09308 5.36844 1.0448C5.4796 0.992132 5.61391 0.952631 5.66949 0.948242H5.67412ZM1.4966 9.02401L17.85 9.04596L18.0446 9.16446C18.1511 9.23468 18.2947 9.37074 18.4938 9.65603L18.5077 12.9258C18.517 15.2388 18.5077 16.3098 18.4707 16.5731C18.4382 16.7794 18.378 17.0954 18.3317 17.2753C18.2854 17.4553 18.1928 17.7406 18.1233 17.9117C18.0538 18.0829 17.9427 18.3068 17.8778 18.4165C17.813 18.5262 17.6694 18.7237 17.5629 18.8554C17.4564 18.9871 17.2711 19.1846 17.1461 19.2943C17.021 19.404 16.8265 19.5576 16.7107 19.6322C16.5949 19.7025 16.3912 19.8166 16.2568 19.8824C16.1272 19.9439 15.8354 20.0536 15.6085 20.1238C15.3861 20.1984 14.9091 20.295 14.5432 20.3433C13.918 20.431 13.6818 20.4354 9.62469 20.4354C5.63243 20.4354 5.32213 20.431 4.72468 20.3476C4.37733 20.2994 3.90029 20.2072 3.67336 20.137C3.44179 20.0667 3.14075 19.9526 3.0018 19.8868C2.86286 19.821 2.62203 19.6849 2.46919 19.5796C2.31636 19.4786 2.06626 19.2679 1.91343 19.1143C1.76059 18.9607 1.55218 18.7062 1.45492 18.5482C1.35766 18.3901 1.24651 18.1926 1.20946 18.1093C1.1724 18.0259 1.08904 17.8196 1.02883 17.6484C0.963992 17.4772 0.875995 17.1173 0.82505 16.8452C0.737053 16.3844 0.732422 16.143 0.732422 13.0926C0.732422 11.1176 0.750947 9.77453 0.778736 9.68236C0.801893 9.59897 0.880627 9.45852 0.954729 9.37513C1.02883 9.29174 1.17704 9.17763 1.29282 9.12057L1.4966 9.02401ZM5.59538 12.1534C5.49812 12.2148 5.37771 12.3553 5.30361 12.4957C5.23413 12.6274 5.17856 12.8029 5.17856 12.8907C5.17856 12.9741 5.20635 13.1233 5.23413 13.2199C5.26655 13.3165 5.37308 13.4745 5.4796 13.571C5.58149 13.6676 5.74822 13.7685 5.85011 13.7992C5.952 13.83 6.10947 13.8519 6.19746 13.8519C6.28546 13.8563 6.47072 13.7992 6.60966 13.7334C6.76249 13.6588 6.90144 13.5535 6.96628 13.4613C7.02185 13.3735 7.09132 13.2155 7.12374 13.1102C7.16079 12.9653 7.16079 12.86 7.12374 12.7152C7.09595 12.6054 7.00796 12.4387 6.92459 12.3465C6.84123 12.2499 6.70229 12.1402 6.61429 12.0963C6.52629 12.0568 6.36883 12.0129 6.26694 11.9998C6.16504 11.9866 6.00758 11.991 5.91958 12.0129C5.83158 12.0349 5.68338 12.0963 5.59538 12.1534ZM9.1384 12.1095C9.05966 12.149 8.95314 12.2236 8.89756 12.2807C8.84199 12.3377 8.76326 12.4562 8.72157 12.5484C8.68452 12.6406 8.6521 12.8073 8.6521 12.9214C8.6521 13.0356 8.68915 13.2111 8.73547 13.3077C8.78178 13.4042 8.89756 13.5447 8.99019 13.6237C9.08282 13.7027 9.24029 13.7861 9.33292 13.808C9.43018 13.8344 9.57375 13.8519 9.65711 13.8519C9.74048 13.8563 9.88868 13.8256 9.98131 13.7861C10.0786 13.7466 10.2175 13.6632 10.2916 13.6017C10.3611 13.5359 10.463 13.4042 10.5093 13.3077C10.5556 13.2111 10.5927 13.0356 10.5973 12.9214C10.5973 12.8073 10.5649 12.6406 10.5232 12.5484C10.4861 12.4562 10.4074 12.3377 10.3518 12.2807C10.2962 12.2236 10.1758 12.1446 10.0878 12.1007C9.99984 12.0568 9.84237 12.0129 9.74048 11.9998C9.63859 11.9866 9.49038 11.991 9.41628 12.0085C9.33755 12.0261 9.2125 12.07 9.1384 12.1095ZM12.5239 12.1534C12.4498 12.1929 12.3433 12.2938 12.2831 12.3728C12.2275 12.4518 12.1534 12.6054 12.1256 12.7152C12.084 12.8644 12.084 12.9609 12.1256 13.1102C12.1534 13.2155 12.2229 13.3735 12.2831 13.4613C12.3433 13.5535 12.4823 13.6588 12.6351 13.7334C12.774 13.7992 12.9639 13.8563 13.0519 13.8519C13.1399 13.8519 13.2974 13.83 13.3993 13.7992C13.5012 13.7685 13.6679 13.6676 13.7698 13.571C13.8995 13.4481 13.9782 13.3252 14.0199 13.176C14.0569 13.0487 14.0708 12.8776 14.0569 12.781C14.0384 12.6844 13.9689 12.5177 13.8995 12.4079C13.8161 12.2807 13.6957 12.1797 13.5614 12.1139C13.4456 12.0568 13.2696 12.0041 13.1677 11.991C13.0658 11.9778 12.9083 11.991 12.8204 12.0217C12.7324 12.0524 12.598 12.1139 12.5239 12.1534ZM5.4796 15.5417C5.37308 15.6382 5.26655 15.8006 5.23413 15.8972C5.20635 15.9938 5.17856 16.1386 5.17856 16.2264C5.17856 16.3098 5.23413 16.4853 5.30361 16.617C5.38234 16.7618 5.49349 16.8935 5.59538 16.9549C5.68338 17.0076 5.85011 17.0734 5.96589 17.1042C6.12336 17.1393 6.22525 17.1393 6.40588 17.0998C6.57724 17.0559 6.69302 16.9901 6.85049 16.8408C7.00333 16.696 7.07743 16.5819 7.11911 16.4239C7.16079 16.2527 7.16542 16.1561 7.12374 16.0069C7.09132 15.8972 7.02185 15.7392 6.96628 15.6558C6.90144 15.5592 6.76249 15.4539 6.60966 15.3793C6.44756 15.3003 6.29009 15.2608 6.17431 15.2608C6.07242 15.2652 5.91495 15.2915 5.82695 15.3178C5.73896 15.3442 5.58149 15.4451 5.4796 15.5417ZM8.95777 15.511C8.88367 15.5768 8.78641 15.7129 8.7401 15.8094C8.69378 15.906 8.6521 16.0771 8.6521 16.1913C8.6521 16.3054 8.68452 16.4722 8.72157 16.5643C8.76326 16.6565 8.84199 16.775 8.89756 16.8321C8.95314 16.8891 9.08282 16.9769 9.18471 17.0252C9.30513 17.0866 9.45796 17.1173 9.62469 17.1173C9.79142 17.1173 9.94426 17.0866 10.0647 17.0252C10.1666 16.9769 10.2962 16.8891 10.3518 16.8321C10.4074 16.775 10.4861 16.6565 10.5232 16.5643C10.5649 16.4722 10.5973 16.3098 10.5973 16.2044C10.5973 16.0947 10.5649 15.9323 10.5232 15.8401C10.4861 15.748 10.3842 15.6119 10.3055 15.5329C10.2175 15.4451 10.0647 15.3617 9.92573 15.3222C9.79605 15.2871 9.65248 15.2608 9.60154 15.2608C9.55059 15.2652 9.41628 15.2915 9.3005 15.3266C9.18471 15.3617 9.03188 15.4451 8.95777 15.511ZM12.5425 15.4056C12.4684 15.4451 12.3526 15.5505 12.2924 15.6426C12.2275 15.7348 12.1534 15.8972 12.1256 16.0069C12.084 16.1561 12.084 16.2527 12.1303 16.4239C12.172 16.5819 12.2414 16.696 12.3989 16.8408C12.5564 16.9901 12.6721 17.0559 12.8435 17.0998C13.0195 17.1393 13.1214 17.1393 13.2835 17.1042C13.3993 17.0734 13.566 17.0076 13.654 16.9549C13.7513 16.8935 13.867 16.7618 13.9411 16.617C14.0153 16.4853 14.0708 16.3098 14.0708 16.2264C14.0708 16.1386 14.043 15.9938 14.0106 15.8972C13.9828 15.8006 13.8717 15.6382 13.7698 15.5417C13.6401 15.4188 13.5151 15.3486 13.3622 15.3135C13.2418 15.2827 13.0982 15.2608 13.038 15.2608C12.9825 15.2652 12.8806 15.2827 12.8111 15.3003C12.7416 15.3178 12.6212 15.3661 12.5425 15.4056Z" fill="#fff"/>
</svg>
