<svg width="19" height="20" viewBox="0 0 19 20" fill="none" xmlns="http://www.w3.org/2000/svg">
<path fill-rule="evenodd" clip-rule="evenodd" d="M5.34494 0C5.39717 0 5.51469 0.039173 5.60174 0.0826986C5.69314 0.126224 5.80196 0.200218 5.84113 0.243743C5.88466 0.291621 5.94559 0.404788 5.98041 0.500544C6.01959 0.600653 6.0457 0.835691 6.05005 1.43634H12.0566V1.03156C12.0566 0.700762 12.074 0.5963 12.1523 0.435256C12.2089 0.326442 12.3221 0.195865 12.4048 0.139282C12.4875 0.0826986 12.605 0.0261153 12.6659 0.0130576C12.7269 -3.37262e-08 12.8444 0.0130577 12.9271 0.0435256C13.0098 0.0739935 13.1273 0.130577 13.1882 0.174102C13.2492 0.213275 13.3319 0.317737 13.3711 0.40914C13.432 0.526659 13.4494 0.674646 13.4494 1.00109C13.4494 1.41893 13.4538 1.43634 13.5452 1.45375C13.6017 1.46246 13.8324 1.50163 14.0588 1.54081C14.2851 1.57563 14.6376 1.65832 14.8422 1.72361C15.0468 1.78455 15.3776 1.92383 15.5822 2.02394C15.7867 2.1284 16.0696 2.29815 16.2133 2.40261C16.3569 2.50707 16.5963 2.72035 16.7486 2.87269C16.901 3.02938 17.1099 3.28183 17.2144 3.43852C17.3145 3.59521 17.4581 3.83896 17.5277 3.98259C17.6017 4.12622 17.6975 4.36126 17.7497 4.5049C17.7976 4.64853 17.8672 4.88357 17.9064 5.0272C17.9412 5.17084 18.0022 5.48422 18.0413 5.72361C18.1023 6.10664 18.1066 6.74211 18.0936 10.8814C18.0805 15.1034 18.0718 15.6431 18.0065 15.9652C17.9674 16.161 17.8716 16.5136 17.7976 16.7486C17.7236 16.9793 17.6017 17.2884 17.5321 17.432C17.4581 17.5756 17.3145 17.8194 17.2144 17.9761C17.1099 18.1328 16.8923 18.3939 16.7269 18.5593C16.5658 18.7247 16.3134 18.9423 16.1697 19.0468C16.0261 19.1469 15.7214 19.321 15.4951 19.4298C15.2688 19.5386 14.9162 19.6736 14.7116 19.7345C14.5071 19.7911 14.1153 19.8781 13.8411 19.9217C13.3798 19.9956 13.0054 20 9.05332 20C5.1012 20 4.72688 19.9956 4.26551 19.9217C3.99129 19.8781 3.59956 19.7911 3.39499 19.7345C3.19042 19.6736 2.84657 19.543 2.6333 19.4385C2.41567 19.3384 2.14146 19.1904 2.02394 19.1077C1.90207 19.025 1.7062 18.8683 1.58868 18.7639C1.46681 18.6551 1.26659 18.4505 1.14472 18.3025C1.0185 18.1589 0.835691 17.9064 0.739935 17.7367C0.644178 17.5669 0.504897 17.284 0.435256 17.1056C0.361262 16.9271 0.261153 16.6311 0.217628 16.4527C0.174102 16.2742 0.104461 15.9347 0.0696408 15.6997C0.00870505 15.3384 0 14.6333 0 10.7291C0 6.85528 0.00870512 6.11534 0.0652883 5.73232C0.104461 5.48857 0.16975 5.14037 0.217628 4.96192C0.261153 4.78346 0.361262 4.48749 0.435256 4.30903C0.504897 4.13058 0.644178 3.84331 0.739935 3.67791C0.835691 3.51251 1.0185 3.25571 1.14472 3.11208C1.26659 2.96409 1.46681 2.75952 1.58868 2.65071C1.7062 2.54625 1.90207 2.38955 2.02394 2.30686C2.14146 2.22416 2.41567 2.07617 2.6333 1.97606C2.84657 1.8716 3.19042 1.74102 3.39499 1.68444C3.59956 1.6235 3.92165 1.55386 4.11317 1.5234C4.30468 1.49728 4.5049 1.46681 4.55713 1.45375C4.65288 1.43634 4.65724 1.41458 4.66594 0.948857C4.679 0.526659 4.69206 0.439608 4.77476 0.322089C4.82699 0.243743 4.95321 0.143634 5.05767 0.0957563C5.16213 0.0435256 5.28836 0.00435256 5.34059 0H5.34494ZM6.05005 3.27748C6.03264 3.68662 6.02394 3.7432 5.91077 3.88683C5.84548 3.97388 5.74102 4.0827 5.67138 4.12187C5.60609 4.1654 5.47116 4.19587 5.358 4.19587C5.24048 4.19587 5.1012 4.16104 5.00979 4.10881C4.92709 4.06094 4.81393 3.95212 4.75734 3.86942C4.67029 3.73885 4.65724 3.66921 4.66159 3.29924V2.87269C4.40914 2.87269 4.1741 2.91186 3.97388 2.95974C3.77802 3.00762 3.4951 3.09902 3.34276 3.15996C3.19478 3.22089 2.93798 3.36017 2.77258 3.47334C2.60718 3.58651 2.3765 3.78672 2.25898 3.9173C2.14146 4.04788 1.97171 4.30468 1.87595 4.48313C1.78455 4.66159 1.65832 4.97497 1.60174 5.17954C1.54081 5.38411 1.47116 5.72797 1.44505 5.94124C1.41893 6.15452 1.39717 6.39826 1.39717 6.47661V6.61589H16.7182C16.7182 6.39826 16.6964 6.15452 16.6703 5.94124C16.6442 5.72797 16.5745 5.38847 16.518 5.1926C16.4614 4.99238 16.3482 4.70076 16.2655 4.53972C16.1872 4.37432 16.0218 4.12187 15.8955 3.97388C15.7737 3.82155 15.5517 3.61262 15.3993 3.50816C15.2514 3.39935 15.012 3.26007 14.8683 3.19913C14.7247 3.13384 14.42 3.03373 14.1937 2.97715C13.9674 2.92057 13.7062 2.87269 13.6148 2.87269H13.4538C13.4581 3.66921 13.445 3.73885 13.358 3.86942C13.3014 3.95212 13.1882 4.06094 13.1055 4.10881C13.0141 4.16104 12.8705 4.19587 12.753 4.20022C12.6007 4.20022 12.518 4.16975 12.3961 4.0827C12.309 4.01306 12.2002 3.9086 12.1567 3.84331C12.1001 3.7519 12.0783 3.61698 12.0696 3.27748L12.0609 2.82916H6.06311L6.05005 3.27748ZM1.40152 11.543C1.40152 13.8542 1.41458 15.2165 1.4494 15.4733C1.47552 15.6866 1.54516 16.0305 1.60174 16.235C1.66268 16.4353 1.79325 16.7617 1.89336 16.9489C2.00653 17.1708 2.18063 17.4015 2.35909 17.5843C2.51143 17.7454 2.77693 17.9543 2.94668 18.0544C3.11208 18.1502 3.39499 18.2807 3.5778 18.3417C3.75626 18.3983 4.08705 18.481 4.31774 18.5158C4.67029 18.5724 5.358 18.5854 9.06202 18.5854C12.7617 18.5854 13.4494 18.5724 13.8063 18.5158C14.0326 18.481 14.3634 18.3983 14.5462 18.3417C14.7247 18.2807 15.0076 18.1502 15.1774 18.0544C15.3428 17.9543 15.6083 17.7454 15.765 17.5843C15.9434 17.4015 16.1132 17.1708 16.2263 16.9489C16.3264 16.7617 16.457 16.4353 16.518 16.235C16.5789 16.0305 16.6485 15.6736 16.6746 15.4385C16.7051 15.1687 16.7225 13.7584 16.7225 11.5125V8.00871H1.40152V11.543ZM5.80631 10.4853C5.91948 10.4853 6.08487 10.5158 6.17628 10.555C6.26768 10.5898 6.3852 10.6638 6.44178 10.716C6.49837 10.7682 6.58542 10.8901 6.6333 10.9859C6.68988 11.099 6.7247 11.247 6.7247 11.3993C6.7247 11.5734 6.69859 11.6953 6.62024 11.8346C6.56366 11.9391 6.42873 12.0871 6.32427 12.161C6.18934 12.2568 6.07182 12.296 5.91077 12.309C5.7889 12.3177 5.61045 12.3003 5.51469 12.2699C5.41893 12.235 5.27095 12.1523 5.18825 12.0783C5.1099 12.0044 5.00544 11.8651 4.96192 11.7693C4.91839 11.6736 4.88357 11.5256 4.88357 11.4429C4.88357 11.3602 4.90098 11.2165 4.92709 11.1295C4.94886 11.0381 5.03156 10.8945 5.1099 10.8074C5.18825 10.716 5.33188 10.6115 5.42764 10.568C5.52339 10.5245 5.69314 10.4897 5.80631 10.4853ZM9.06202 10.4853C9.23177 10.4853 9.358 10.5158 9.49728 10.5854C9.60609 10.642 9.74973 10.7726 9.82372 10.8727C9.92818 11.0294 9.9543 11.1077 9.963 11.3515C9.97606 11.5865 9.95865 11.6779 9.87595 11.8346C9.81502 11.9434 9.68879 12.0871 9.58433 12.161C9.4407 12.2655 9.34494 12.296 9.13166 12.309C8.90968 12.3221 8.82699 12.3047 8.63547 12.2089C8.48458 12.1335 8.36852 12.0348 8.28727 11.9129C8.20022 11.778 8.1654 11.6649 8.15234 11.469C8.13928 11.2514 8.15669 11.1643 8.24374 10.9859C8.30468 10.8683 8.37867 10.7465 8.41349 10.716C8.44396 10.6899 8.55277 10.6246 8.64853 10.5767C8.75299 10.5245 8.90968 10.4897 9.06202 10.4853ZM12.3047 10.4897C12.4222 10.4897 12.5963 10.5245 12.6964 10.568C12.7922 10.6115 12.9314 10.716 13.0098 10.8074C13.0881 10.8945 13.1708 11.0381 13.197 11.1295C13.2187 11.2165 13.2361 11.3602 13.2361 11.4429C13.2361 11.5256 13.2013 11.6736 13.1578 11.7693C13.1143 11.8651 13.0098 12.0044 12.9314 12.0783C12.8487 12.1523 12.7051 12.235 12.6094 12.2699C12.5136 12.3003 12.3308 12.3177 12.2089 12.309C12.0479 12.296 11.9304 12.2568 11.7954 12.161C11.691 12.0871 11.5604 11.9391 11.4995 11.8346C11.4255 11.6953 11.395 11.5734 11.395 11.3993C11.395 11.2427 11.4298 11.099 11.4908 10.9771C11.543 10.8727 11.6474 10.7421 11.7258 10.6855C11.8041 10.6289 11.9173 10.5593 11.9782 10.5375C12.0348 10.5114 12.1828 10.4897 12.3047 10.4897ZM12.3917 13.7323C12.4875 13.7454 12.6529 13.7976 12.7617 13.8542C12.8879 13.9151 12.9967 14.0196 13.0751 14.1458C13.1447 14.2503 13.21 14.4157 13.2231 14.5114C13.2405 14.6115 13.2274 14.7813 13.1926 14.9032C13.1534 15.0511 13.0794 15.1774 12.9576 15.2949C12.8618 15.395 12.7051 15.4951 12.6094 15.5256C12.5136 15.5517 12.3656 15.5778 12.2829 15.5778C12.1959 15.5778 12.0218 15.5256 11.8912 15.4603C11.7476 15.3863 11.617 15.2818 11.556 15.1861C11.5038 15.1034 11.4385 14.9467 11.4124 14.8379C11.3732 14.6986 11.3732 14.5898 11.4081 14.4461C11.4342 14.3286 11.5212 14.1676 11.6257 14.0457C11.7563 13.8934 11.8564 13.8194 12.0087 13.7715C12.1219 13.7367 12.296 13.7193 12.3917 13.7323ZM5.80631 13.7541C5.95865 13.7497 6.1197 13.7802 6.21545 13.8281C6.3025 13.8672 6.44178 13.9804 6.52013 14.0762C6.60283 14.1719 6.68553 14.3373 6.71164 14.4461C6.74646 14.5898 6.74646 14.6942 6.71164 14.8379C6.68117 14.9467 6.61589 15.1034 6.56366 15.1861C6.50272 15.2818 6.37214 15.3863 6.22851 15.4603C6.08487 15.5343 5.92383 15.5778 5.81937 15.5778C5.72361 15.5778 5.54516 15.5343 5.42764 15.4777C5.30577 15.4211 5.15778 15.3123 5.09249 15.2296C5.03156 15.1469 4.95756 15.0076 4.93145 14.9249C4.90098 14.8422 4.87922 14.7029 4.87922 14.6202C4.88357 14.5375 4.92709 14.3721 4.98368 14.2503C5.03591 14.1328 5.14037 13.9891 5.21001 13.9412C5.27965 13.889 5.38847 13.8237 5.4494 13.802C5.50598 13.7758 5.66703 13.7541 5.80631 13.7541ZM9.04897 13.7497C9.17519 13.7497 9.34929 13.7802 9.4407 13.8194C9.5321 13.8542 9.64962 13.9282 9.7062 13.9804C9.76278 14.0326 9.84984 14.1545 9.89336 14.2503C9.93689 14.346 9.97171 14.5245 9.97171 14.642C9.97171 14.7639 9.93689 14.938 9.89336 15.0337C9.84984 15.1295 9.74102 15.2731 9.65397 15.3515C9.56692 15.4298 9.42329 15.5125 9.33188 15.5343C9.24048 15.5604 9.11861 15.5778 9.06202 15.5778C9.00109 15.5778 8.87922 15.5604 8.78781 15.5343C8.69641 15.5125 8.55277 15.4298 8.46572 15.3515C8.37867 15.2731 8.26986 15.1295 8.22633 15.0337C8.18281 14.938 8.14799 14.7682 8.14799 14.6551C8.14799 14.5419 8.17845 14.3721 8.21327 14.2851C8.25245 14.1937 8.32644 14.0762 8.37867 14.0152C8.4309 13.9587 8.55277 13.876 8.64853 13.8324C8.74429 13.7889 8.92274 13.7541 9.04897 13.7497Z" fill="#212121"/>
</svg>
