<svg width="18" height="18" viewBox="0 0 18 18" fill="none" xmlns="http://www.w3.org/2000/svg">
<path fill-rule="evenodd" clip-rule="evenodd" d="M4.59571 0.0167332C4.52476 0.0334511 4.42461 0.100317 4.3787 0.158827C4.29941 0.263308 4.29107 0.325996 4.29107 0.969599V1.67171L3.15596 1.68843L3.13719 1.68878H3.13717C2.04133 1.70933 2.0064 1.70998 1.66613 1.82634C0.752199 2.13561 0.13874 2.90877 0.0302371 3.89925C0.00519793 4.11239 -0.00314845 6.56978 0.00102474 10.1263C0.0135443 15.6847 0.0177175 16.0065 0.092835 16.2238C0.380785 17.0973 0.994244 17.6949 1.83306 17.9248C2.08345 17.9958 2.53833 18 9.00677 18C15.4752 18 15.9301 17.9958 16.1805 17.9248C17.0318 17.6907 17.6578 17.0722 17.9249 16.2029C17.9958 15.9647 18 15.6554 18 9.85048C18 4.0497 17.9958 3.73626 17.9249 3.50222C17.6661 2.66637 17.1403 2.10635 16.3599 1.8347C15.9969 1.70933 15.9969 1.70933 14.8618 1.68843H14.8618L13.7225 1.67171V0.96542C13.7225 0.296741 13.7183 0.259129 13.6307 0.154648C13.447 -0.0543137 13.1007 -0.0501347 12.9337 0.158827C12.8545 0.263308 12.8461 0.325996 12.8461 0.973778V1.68007H9.00677H5.16744V0.973778C5.16744 0.296741 5.16326 0.259129 5.07563 0.154648C4.95878 0.0250912 4.77098 -0.0292377 4.59571 0.0167332ZM16.193 2.73324C16.5018 2.87533 16.8273 3.20131 16.9692 3.51058C17.0736 3.73208 17.0819 3.79894 17.0944 4.42583L17.1111 5.10705H9.00677L0.902434 5.10705L0.919127 4.42583C0.931646 3.83656 0.948339 3.72372 1.02763 3.54401C1.21542 3.13027 1.54928 2.821 1.9666 2.67891C2.17108 2.60368 2.52998 2.60368 9.06937 2.61204L15.9551 2.6204L16.193 2.73324ZM17.0819 15.9522L17.0944 10.9872L17.1028 6.02648H9.00677L0.91078 6.02648L0.919127 10.9872L0.931646 15.9522L1.04432 16.1904C1.18621 16.4997 1.51172 16.8256 1.82054 16.9677L2.05841 17.0806H9.00677L15.9551 17.0806L16.193 16.9677C16.5018 16.8256 16.8273 16.4997 16.9692 16.1904L17.0819 15.9522Z" fill="black"/>
</svg>
