<svg width="38" height="37" viewBox="0 0 38 37" fill="none" xmlns="http://www.w3.org/2000/svg">
<g clip-path="url(#clip0_326_4464)">
<path d="M14.7552 16.6377C15.4622 17.9159 16.2758 19.146 17.3313 20.2674C18.3916 21.3941 19.7044 22.4209 21.4115 23.2913L21.4132 23.2922L21.4136 23.2913C21.538 23.355 21.6564 23.3535 21.7677 23.3116C21.929 23.251 22.097 23.1163 22.2604 22.9533C22.385 22.8286 22.5412 22.6228 22.71 22.3997C23.3673 21.5317 24.1799 20.4587 25.3271 20.9925C25.3514 21.0037 25.3743 21.0168 25.3958 21.0314L29.2194 23.2388C29.233 23.2467 29.2462 23.2551 29.2587 23.264C29.7655 23.6137 29.9725 24.1523 29.9747 24.7554C29.9771 25.3773 29.7476 26.0734 29.4152 26.662C28.9769 27.4378 28.3237 27.9505 27.5762 28.298C26.8635 28.6291 26.0726 28.8053 25.3089 28.9177C24.1144 29.0937 22.9884 28.9819 21.8417 28.6271C20.7223 28.2806 19.5899 27.7022 18.3553 26.9336L18.2654 26.8776C17.697 26.5238 17.0852 26.1431 16.49 25.6918C14.2914 24.024 12.0524 21.6172 10.6007 18.9758C9.37856 16.7523 8.70983 14.354 9.07436 12.0673C9.27414 10.8124 9.81264 9.67336 10.741 8.91884C11.5548 8.25707 12.653 7.89861 14.0646 8.0252C14.2309 8.03962 14.371 8.13495 14.45 8.26892L14.451 8.2684L16.8989 12.4369C17.2595 12.9037 17.2995 13.367 17.1045 13.8274C16.9434 14.2084 16.6103 14.5576 16.1687 14.8868C16.0344 14.9985 15.8768 15.1144 15.7143 15.2339C15.1677 15.636 14.5426 16.0958 14.7552 16.6377ZM16.6091 20.9541C15.4805 19.7549 14.6207 18.4564 13.879 17.1141C13.866 17.093 13.8544 17.0707 13.8445 17.0472C13.302 15.766 14.2751 15.0505 15.125 14.4258C15.2694 14.3197 15.4092 14.2168 15.5353 14.1117L15.5357 14.1122C15.543 14.106 15.5507 14.1 15.5588 14.0942C15.8737 13.8616 16.1007 13.6395 16.1873 13.4351C16.2367 13.3185 16.2184 13.1902 16.1077 13.0461C16.0887 13.024 16.0713 12.9996 16.0559 12.9735L13.7252 9.00506C12.7222 8.96367 11.9446 9.23195 11.3695 9.69964C10.6451 10.2886 10.2206 11.204 10.0581 12.2243C9.73249 14.2671 10.3513 16.4484 11.4751 18.4933C12.8557 21.0049 14.9914 23.2985 17.0915 24.8912C17.669 25.3292 18.2496 25.6904 18.7889 26.026L18.8788 26.082C20.044 26.8073 21.1034 27.3506 22.1348 27.6697C23.139 27.9804 24.123 28.0785 25.1646 27.9249C25.8498 27.8241 26.5511 27.6699 27.1587 27.3875C27.7313 27.1213 28.2264 26.7374 28.5487 26.1674C28.8044 25.7144 28.9811 25.1964 28.9796 24.7552C28.9786 24.4752 28.8989 24.2349 28.7053 24.095L24.9028 21.9001C24.4822 21.7144 23.9408 22.4293 23.5026 23.0079C23.314 23.2573 23.1395 23.4875 22.9633 23.6635C22.7109 23.9153 22.4304 24.1312 22.1153 24.2494C21.7502 24.3866 21.3642 24.3926 20.9609 24.1858L20.9612 24.1851C19.1473 23.2602 17.7461 22.1624 16.6091 20.9541Z" fill="#34B883"/>
</g>
<defs>
<clipPath id="clip0_326_4464">
<rect width="21" height="21" fill="white" transform="translate(8.9751 8)"/>
</clipPath>
</defs>
</svg>
