<svg width="21px" height="22px" viewBox="0 0 28 24" fill="none" xmlns="http://www.w3.org/2000/svg">
<path opacity="0.8" fill-rule="evenodd" clip-rule="evenodd" d="M0.408785 7.08132C1.54996 3.30998 4.83669 0.539121 8.74872 0.0545137C9.25286 -0.00801622 10.5738 -0.0197406 11.0858 0.0349731C11.8908 0.120952 12.9382 0.37498 13.6495 0.660273C16.8503 1.93041 19.1678 4.69736 19.8243 8.02708C19.965 8.73445 20.0041 9.18389 20.0041 10.0007C20.0041 11.0871 19.879 11.9665 19.5898 12.9161C18.4252 16.7696 15.0369 19.5599 11.0389 19.9664C10.4409 20.0289 8.9832 19.9977 8.47515 19.9117C7.34961 19.7202 6.48201 19.4427 5.5167 18.962L5.00474 18.708L2.97642 19.3606C1.09661 19.9664 0.936382 20.0133 0.713619 19.9977C0.287633 19.9703 0.0296972 19.7124 0.00234036 19.2864C-0.0132921 19.0636 0.0336053 18.9034 0.639364 17.0236L1.29202 14.9953L1.03799 14.4833C0.342347 13.0881 0.0453297 11.8688 0.00624848 10.2899C-0.0250165 9.03147 0.088319 8.14042 0.408785 7.08132ZM15.9358 4.06425C14.6812 2.80583 13.1766 2.02421 11.3867 1.69202C11.0506 1.62949 9.41701 1.57868 9.11999 1.62167C7.9241 1.78972 7.16593 2.01639 6.24752 2.47755C5.42681 2.8879 4.73117 3.39205 4.06288 4.06425C2.80446 5.31875 2.01893 6.8312 1.69065 8.6133C1.60858 9.07837 1.57341 10.3641 1.63203 10.8956C1.69065 11.4389 1.80398 11.9782 1.96422 12.4902C2.16744 13.1272 2.31986 13.475 2.78883 14.3582C2.9647 14.6943 2.97251 14.7217 2.95297 14.9445C2.93734 15.0891 2.75366 15.7222 2.48009 16.5663C2.23388 17.3284 2.03456 17.9537 2.03847 17.9615C2.04629 17.9654 2.67159 17.7661 3.43367 17.5199C4.27783 17.2463 4.91094 17.0627 5.05554 17.047C5.29003 17.0275 5.29394 17.0275 5.90751 17.348C6.63442 17.7231 6.93926 17.8521 7.50984 18.0358C8.02181 18.196 8.56113 18.3094 9.10436 18.368C9.63586 18.4266 10.9216 18.3914 11.3867 18.3094C13.1688 17.9811 14.6812 17.1955 15.9358 15.9371C17.0066 14.8702 17.7569 13.5766 18.1282 12.1736C18.351 11.3216 18.3822 11.0832 18.3822 10.0007C18.3822 8.91813 18.351 8.67974 18.1282 7.82777C17.7569 6.42475 17.0066 5.13116 15.9358 4.06425ZM5.11414 10.0006C5.11414 9.59028 5.32127 9.25809 5.68081 9.09785C5.78242 9.05096 5.92703 9.0236 6.09117 9.0236C6.66957 9.0236 7.0682 9.42223 7.0682 10.0006C7.0682 10.579 6.66957 10.9777 6.09117 10.9777C5.51276 10.9777 5.11414 10.579 5.11414 10.0006ZM9.58896 9.09785C9.22941 9.25809 9.02228 9.59028 9.02228 10.0006C9.02228 10.579 9.42091 10.9777 9.99931 10.9777C10.5777 10.9777 10.9763 10.579 10.9763 10.0006C10.9763 9.42223 10.5777 9.0236 9.99931 9.0236C9.83517 9.0236 9.69057 9.05096 9.58896 9.09785ZM12.9304 10.0006C12.9304 9.59028 13.1375 9.25809 13.4971 9.09785C13.5987 9.05096 13.7433 9.0236 13.9074 9.0236C14.4858 9.0236 14.8844 9.42223 14.8844 10.0006C14.8844 10.579 14.4858 10.9777 13.9074 10.9777C13.329 10.9777 12.9304 10.579 12.9304 10.0006Z" fill="black"/>
</svg>
                