<svg width="38" height="37" viewBox="0 0 38 37" fill="none" xmlns="http://www.w3.org/2000/svg">
<g clip-path="url(#clip0_326_4465)">
<path d="M12.0894 8H22.8574C23.7138 8 24.4924 8.34554 25.0574 8.90413C25.6223 9.46273 25.9717 10.2326 25.9717 11.0794V17.9473C25.9717 18.7941 25.6223 19.564 25.0574 20.1226C24.4924 20.6812 23.7138 21.0267 22.8574 21.0267H17.4725L12.7431 25.0461C12.524 25.2323 12.1926 25.2072 12.0043 24.9888C11.912 24.8813 11.8703 24.7489 11.8794 24.6182L12.1311 21.0249H12.0894C11.233 21.0249 10.4544 20.6794 9.88948 20.1208C9.32455 19.564 8.9751 18.7941 8.9751 17.9473V11.0794C8.9751 10.2326 9.32455 9.46273 9.88948 8.90413C10.4526 8.34554 11.2312 8 12.0894 8ZM27.4999 13.0094C28.1101 13.1258 28.6569 13.423 29.0806 13.842C29.6329 14.388 29.9769 15.1418 29.9769 15.9725V22.8403C29.9769 23.6711 29.6347 24.4248 29.0806 24.9709C28.5284 25.5169 27.7661 25.8571 26.926 25.8571H26.8155L27.0726 29.5166C27.0799 29.6312 27.0455 29.7493 26.964 29.8424C26.7992 30.034 26.5077 30.0555 26.3158 29.8926L21.5682 25.7389H15.3142L18.3941 22.6416H24.9197C26.3429 22.6416 27.509 21.4904 27.509 20.0814V13.2118C27.5072 13.1437 27.5054 13.0757 27.4999 13.0094ZM13.6249 15.8203C13.3352 15.8203 13.0998 15.5876 13.0998 15.3011C13.0998 15.0146 13.3352 14.7819 13.6249 14.7819H19.1202C19.4099 14.7819 19.6453 15.0146 19.6453 15.3011C19.6453 15.5876 19.4099 15.8203 19.1202 15.8203H13.6249ZM13.6249 13.2493C13.3352 13.2493 13.0998 13.0166 13.0998 12.7301C13.0998 12.4437 13.3352 12.2109 13.6249 12.2109H21.4143C21.704 12.2109 21.9394 12.4437 21.9394 12.7301C21.9394 13.0166 21.704 13.2493 21.4143 13.2493H13.6249ZM22.8556 9.03841H12.0894C11.5227 9.03841 11.0067 9.26758 10.6318 9.63818C10.257 10.0088 10.0253 10.5173 10.0253 11.0794V17.9473C10.0253 18.5076 10.257 19.0179 10.6318 19.3885C11.0067 19.7591 11.5227 19.9883 12.0894 19.9883H12.6942V19.9901L12.7286 19.9919C13.0165 20.0116 13.2356 20.2586 13.2157 20.5433L13.0111 23.4544L16.9112 20.1387C17.0054 20.0456 17.1357 19.9883 17.2806 19.9883H22.8556C23.4223 19.9883 23.9384 19.7591 24.3132 19.3885C24.688 19.0179 24.9197 18.5076 24.9197 17.9473V11.0794C24.9197 10.519 24.688 10.0088 24.3132 9.63818C23.9402 9.26758 23.4241 9.03841 22.8556 9.03841Z" fill="#34B883"/>
</g>
<defs>
<clipPath id="clip0_326_4465">
<rect width="21" height="22" fill="white" transform="translate(8.9751 8)"/>
</clipPath>
</defs>
</svg>
