<svg width="21" height="19" viewBox="0 0 21 19" fill="none" xmlns="http://www.w3.org/2000/svg">
<path fill-rule="evenodd" clip-rule="evenodd" d="M0.482698 6.87661C1.67209 3.3724 5.09769 0.797809 9.17502 0.347528C9.70047 0.289427 11.0772 0.278533 11.6108 0.329371C12.4499 0.40926 13.5416 0.645294 14.2829 0.910379C17.6189 2.09055 20.0343 4.66152 20.7186 7.75539C20.8653 8.41265 20.906 8.83025 20.906 9.5892C20.906 10.5987 20.7756 11.4157 20.4742 12.2981C19.2604 15.8786 15.7289 18.4714 11.5619 18.849C10.9387 18.9071 9.41942 18.8781 8.88989 18.7982C7.7168 18.6202 6.81253 18.3624 5.80644 17.9158L5.27284 17.6797L3.15883 18.2862C1.19959 18.849 1.03259 18.8926 0.800412 18.8781C0.356427 18.8527 0.0875926 18.613 0.0590799 18.2172C0.0427868 18.0102 0.0916659 17.8613 0.72302 16.1146L1.40325 14.23L1.13849 13.7543C0.413453 12.4579 0.103886 11.325 0.0631531 9.85791C0.030567 8.68863 0.148691 7.86069 0.482698 6.87661ZM5.38687 9.58915C5.38687 9.20786 5.60275 8.8992 5.97749 8.75031C6.08339 8.70674 6.2341 8.68132 6.40518 8.68132C7.00802 8.68132 7.42349 9.05171 7.42349 9.58915C7.42349 10.1266 7.00802 10.497 6.40518 10.497C5.80234 10.497 5.38687 10.1266 5.38687 9.58915ZM10.0508 8.75031C9.67602 8.8992 9.46014 9.20786 9.46014 9.58915C9.46014 10.1266 9.87561 10.497 10.4785 10.497C11.0813 10.497 11.4968 10.1266 11.4968 9.58915C11.4968 9.05171 11.0813 8.68132 10.4785 8.68132C10.3074 8.68132 10.1567 8.70674 10.0508 8.75031ZM13.5334 9.58915C13.5334 9.20786 13.7493 8.8992 14.124 8.75031C14.2299 8.70674 14.3806 8.68132 14.5517 8.68132C15.1545 8.68132 15.57 9.05171 15.57 9.58915C15.57 10.1266 15.1545 10.497 14.5517 10.497C13.9489 10.497 13.5334 10.1266 13.5334 9.58915Z" fill="#fff"/>
</svg>
