<svg width="19" height="19" viewBox="0 0 18 18" fill="none" xmlns="http://www.w3.org/2000/svg">
<path fill-rule="evenodd" clip-rule="evenodd" d="M3.5068 1.83765C4.85815 0.828263 6.24468 0.258503 7.87051 0.0474801C8.35967 -0.0158267 9.59488 -0.0158267 10.1227 0.0474801C14.0923 0.539866 17.2736 3.62431 17.9211 7.61264C17.9985 8.08392 18.0267 9.44853 17.9704 9.9585C17.5164 14.1367 14.2718 17.4252 10.0911 17.9492C9.44356 18.0336 8.145 18.009 7.53268 17.9035C5.53734 17.5553 3.84816 16.6585 2.46162 15.2094C1.19122 13.88 0.357191 12.1953 0.0686228 10.37C-0.0228743 9.7932 -0.0228743 8.2035 0.0686228 7.6267C0.304404 6.139 0.888578 4.77087 1.8317 3.51177C2.15194 3.08269 3.07747 2.1577 3.5068 1.83765ZM16.3621 6.25506C15.3557 3.55749 12.8501 1.56684 10.0172 1.21162C7.59954 0.909155 5.27692 1.67939 3.52792 3.37108C2.50737 4.35586 1.76484 5.62199 1.39533 7.00067C1.06101 8.25625 1.06101 9.74045 1.39533 10.996C2.04637 13.4298 3.8552 15.4416 6.19541 16.3384C7.71215 16.9187 9.48579 17.0067 11.0448 16.5811C13.7862 15.8284 15.9117 13.669 16.6155 10.9187C16.9991 9.41336 16.9076 7.71463 16.3621 6.25506ZM8.51807 3.78907C8.56734 3.71872 8.65531 3.63783 8.72218 3.60618C8.97907 3.47957 9.34154 3.57101 9.48583 3.80313C9.55973 3.92271 9.55973 3.94382 9.55973 6.52181V9.1209L11.4812 11.0377C12.5369 12.0928 13.4237 12.9967 13.4519 13.0494C13.5258 13.1936 13.5152 13.4855 13.4272 13.6297C13.2794 13.8654 12.924 13.9533 12.6636 13.8197C12.5369 13.7528 8.60605 9.84189 8.48991 9.66604C8.44065 9.58867 8.43361 9.31082 8.43361 6.7469V3.91568L8.51807 3.78907Z" fill="black"/>
</svg>
