<svg width="16" height="15" viewBox="0 0 16 15" fill="none" xmlns="http://www.w3.org/2000/svg">
<path d="M8 15C7.07781 15 6.16466 14.8186 5.31267 14.4663C4.46068 14.1139 3.68654 13.5974 3.03446 12.9463C2.38238 12.2951 1.86511 11.5222 1.51221 10.6714C1.1593 9.82072 0.977665 8.90892 0.977665 7.98811C0.977665 7.06729 1.1593 6.15549 1.51221 5.30477C1.86511 4.45405 2.38238 3.68106 3.03446 3.02995C3.68654 2.37883 4.46068 1.86234 5.31267 1.50996C6.16466 1.15758 7.07781 0.976211 8 0.976211C9.86244 0.976212 11.6486 1.71496 12.9655 3.02995C14.2825 4.34493 15.0223 6.12844 15.0223 7.98811C15.0223 9.84778 14.2825 11.6313 12.9655 12.9463C11.6486 14.2612 9.86244 15 8 15ZM8 13.4418C8.71726 13.4418 9.42749 13.3007 10.0901 13.0267C10.7528 12.7526 11.3549 12.3509 11.8621 11.8445C12.3693 11.338 12.7716 10.7368 13.0461 10.0751C13.3205 9.41347 13.4618 8.7043 13.4618 7.98811C13.4618 7.27192 13.3205 6.56274 13.0461 5.90107C12.7716 5.23939 12.3693 4.63818 11.8621 4.13176C11.3549 3.62534 10.7528 3.22362 10.0901 2.94955C9.42749 2.67547 8.71726 2.53441 8 2.53441C6.55144 2.53441 5.1622 3.10899 4.13791 4.13176C3.11362 5.15453 2.53818 6.5417 2.53818 7.98811C2.53818 9.43452 3.11362 10.8217 4.13791 11.8445C5.1622 12.8672 6.55144 13.4418 8 13.4418ZM8.78026 7.98811H11.121V9.5463H7.21974V4.09261H8.78026V7.98811ZM0 2.75412L2.75822 0L3.86228 1.10165L1.10251 3.85654L0 2.75412ZM13.241 0L16 2.75412L14.8967 3.85654L12.1377 1.10165L13.2418 0H13.241Z" fill="#8A92A6"/>
</svg>
