<svg width="24" height="24" viewBox="0 0 24 24" fill="none" xmlns="http://www.w3.org/2000/svg">
<g clip-path="url(#clip0_343_16863)">
<g clip-path="url(#clip1_343_16863)">
<path fill-rule="evenodd" clip-rule="evenodd" d="M11.7628 2.28849C11.9168 2.23717 12.0832 2.23717 12.2372 2.28849L21.2372 5.28849C21.5434 5.39057 21.75 5.67718 21.75 6C21.75 6.32282 21.5434 6.60943 21.2372 6.71151L17.0997 8.09066C17.5117 8.75531 17.7917 9.49725 17.9201 10.2759C18.1095 11.4246 17.9605 12.6036 17.4915 13.6692C17.0224 14.7348 16.2535 15.6408 15.2784 16.277C15.2485 16.2964 15.2185 16.3156 15.1884 16.3346C15.5659 16.4774 15.9346 16.6459 16.2918 16.8394C17.6096 17.5534 18.7285 18.5849 19.547 19.8404C19.7733 20.1874 19.6754 20.652 19.3284 20.8783C18.9814 21.1045 18.5167 21.0066 18.2905 20.6596C17.6082 19.6131 16.6756 18.7534 15.5772 18.1583C14.4917 17.5702 13.2781 17.2589 12.0439 17.2517C12.0293 17.2518 12.0146 17.2518 12 17.2518C11.9853 17.2518 11.9705 17.2518 11.9558 17.2517C10.7217 17.2589 9.50826 17.5702 8.42282 18.1583C7.32441 18.7534 6.39182 19.6131 5.70953 20.6596C5.4833 21.0066 5.01863 21.1045 4.67165 20.8783C4.32467 20.652 4.22678 20.1874 4.453 19.8404C5.27158 18.5849 6.39045 17.5534 7.70827 16.8394C8.06539 16.6459 8.43407 16.4774 8.81164 16.3346C8.78148 16.3156 8.75147 16.2964 8.72161 16.277C7.74654 15.6408 6.9776 14.7348 6.50853 13.6692C6.03947 12.6036 5.89054 11.4246 6.0799 10.2759C6.20826 9.49725 6.4883 8.75531 6.90028 8.09066L3.75 7.04057V13.5C3.75 13.9142 3.41421 14.25 3 14.25C2.58579 14.25 2.25 13.9142 2.25 13.5V6C2.25 5.80971 2.32087 5.63598 2.43765 5.50374C2.47313 5.46351 2.513 5.427 2.5567 5.39497C2.62335 5.34606 2.69838 5.30789 2.77923 5.28302L11.7628 2.28849ZM8.42978 7.01936C8.38752 7.00079 8.34395 6.98635 8.29966 6.97598L5.37171 6L12 3.79057L18.6283 6L15.7003 6.97599C15.656 6.98635 15.6125 7.00079 15.5702 7.01935L12 8.20943L8.42978 7.01936ZM8.37691 8.58287C7.95681 9.15316 7.67587 9.81655 7.55993 10.5199C7.4179 11.3814 7.5296 12.2657 7.8814 13.0649C8.2332 13.864 8.80991 14.5436 9.54121 15.0207C10.2609 15.4902 11.0997 15.7437 11.9584 15.7516C11.9722 15.7516 11.9861 15.7515 12 15.7515C12.0139 15.7515 12.0278 15.7516 12.0417 15.7516C12.9003 15.7437 13.7391 15.4902 14.4588 15.0207C15.1901 14.5436 15.7668 13.864 16.1186 13.0649C16.4704 12.2657 16.5821 11.3814 16.4401 10.5199C16.3241 9.81655 16.0432 9.15316 15.6231 8.58287L12.2372 9.71151C12.0832 9.76283 11.9168 9.76283 11.7628 9.71151L8.37691 8.58287Z" fill="black"/>
</g>
</g>
<defs>
<clipPath id="clip0_343_16863">
<rect width="24" height="24" fill="white"/>
</clipPath>
<clipPath id="clip1_343_16863">
<rect width="24" height="24" fill="white"/>
</clipPath>
</defs>
</svg>
