<svg width="38" height="37" viewBox="0 0 38 37" fill="none" xmlns="http://www.w3.org/2000/svg">
<g clip-path="url(#clip0_326_4471)">
<path d="M10.7851 9.548H16.3283V9.05957V9.05735C16.3283 9.04111 16.3286 9.02556 16.3306 9.00967C16.3431 8.7376 16.4573 8.49065 16.6325 8.31138L16.6313 8.31018C16.8148 8.12151 17.0696 8.00427 17.3502 8.00154L17.354 8.00188V8H17.3592H20.6642H20.6668C20.6844 8 20.7012 8.00154 20.7182 8.00376C20.9813 8.01812 21.22 8.13364 21.3937 8.31309C21.5768 8.50176 21.6905 8.7634 21.6934 9.05051L21.6929 9.0541H21.6952V9.05957V9.54783H27.1651H27.168C27.1909 9.54783 27.2125 9.55022 27.2346 9.55364C27.4311 9.57175 27.6093 9.66045 27.7389 9.7946L27.7396 9.7958L27.7404 9.7946C27.8819 9.94106 27.9708 10.1446 27.9733 10.3702L27.9729 10.3757H27.9753V10.3811V12.2318C27.9753 12.4833 27.7766 12.6872 27.532 12.6872H27.5203H10.4184C10.1737 12.6871 9.9751 12.4832 9.9751 12.2318V12.221V10.3811V10.3787C9.9751 10.3606 9.97576 10.3427 9.97809 10.3249V10.3213C9.99288 10.115 10.0818 9.92756 10.2144 9.79187L10.2133 9.79153C10.3566 9.64438 10.5552 9.55295 10.7746 9.54988L10.7799 9.55022V9.548H10.7851ZM22.9049 16.3906H21.9168V25.9768H22.9049V16.3906ZM19.692 16.3906H18.7033V25.9768H19.692V16.3906ZM16.4791 16.3906H15.4907V25.9768H16.4791V16.3906ZM11.7764 13.3951H26.301L26.3474 13.3982L26.3685 13.3994L26.3907 13.4012H26.3922L26.4193 13.4052C26.6459 13.433 26.8578 13.54 27.0131 13.6971C27.1859 13.8722 27.2964 14.1098 27.2964 14.3745C27.2964 14.3913 27.295 14.4075 27.2933 14.4234L27.293 14.435L27.2906 14.4613L26.0618 28.0196L26.0606 28.0269H26.0618L26.0591 28.0507L26.0507 28.099L26.0503 28.0999L26.05 28.103C26.0409 28.1595 26.0301 28.2134 26.0153 28.2615L26.0141 28.2653L26.0138 28.2662L26.0123 28.2692L26.0085 28.2798L26.0078 28.2834C25.9882 28.3439 25.9639 28.4027 25.936 28.4559C25.7683 28.7771 25.4575 29.0005 25.071 29.0005H12.9886L12.9475 28.9981V28.9986L12.9457 28.9981L12.9404 28.9974C12.8639 28.9935 12.7926 28.9819 12.7263 28.9629C12.6573 28.9431 12.5903 28.914 12.5273 28.8783L12.5258 28.878L12.5255 28.8783C12.2288 28.7114 12.031 28.3858 11.9986 28.0201L10.7862 14.4583L10.7844 14.4369L10.7826 14.3947L10.7819 14.3749H10.7811C10.7811 14.1094 10.8914 13.8714 11.0648 13.6962C11.227 13.533 11.4504 13.4229 11.6891 13.4012L11.7094 13.4006V13.3994L11.7592 13.3971L11.7765 13.3975V13.3951H11.7764ZM26.3012 14.3067H11.7764V14.3055L11.7571 14.3062C11.73 14.3099 11.7036 14.3243 11.6843 14.3441C11.6738 14.3549 11.667 14.3667 11.667 14.3747H11.6658L11.667 14.3948L12.8774 27.9375H12.877L12.8774 27.9396C12.8827 28.0038 12.9109 28.0577 12.9517 28.0806L12.9513 28.0812L12.9653 28.0867L12.9758 28.0888H12.9886H25.0715C25.1059 28.0888 25.1378 28.0619 25.1576 28.0243L25.1716 27.9907L25.1805 27.9538L25.1829 27.9302H25.1837L26.411 14.3933L26.4105 14.3745C26.4105 14.3668 26.4037 14.3555 26.3934 14.3451C26.3735 14.325 26.3459 14.3106 26.3184 14.3063L26.3012 14.3067ZM16.7711 10.4591H10.8614V11.776H27.0888V10.4591H21.2622H21.2517C21.0071 10.4591 20.8089 10.2553 20.8089 10.0038V9.05957V9.0541H20.8101C20.8089 9.0165 20.7925 8.9801 20.7671 8.95413C20.7443 8.93003 20.7132 8.91499 20.6805 8.91106H20.6668H20.6642H17.3592H17.354V8.91003C17.3186 8.91123 17.2839 8.92781 17.2583 8.9543L17.2576 8.95361L17.2564 8.9543C17.2347 8.9772 17.218 9.00779 17.2134 9.03992L17.2146 9.05735V9.05957V10.0036C17.2144 10.2552 17.0158 10.4591 16.7711 10.4591Z" fill="#34B883"/>
</g>
<defs>
<clipPath id="clip0_326_4471">
<rect width="18" height="21" fill="white" transform="translate(9.9751 8)"/>
</clipPath>
</defs>
</svg>
