 <svg width="24" height="24" viewBox="0 0 28 24" fill="none" xmlns="http://www.w3.org/2000/svg">
<path fill-rule="evenodd" clip-rule="evenodd" d="M6.75 0.5C6.15326 0.5 5.58097 0.737053 5.15901 1.15901C4.73705 1.58097 4.5 2.15326 4.5 2.75V3.5H2.25H0.75C0.335786 3.5 0 3.83579 0 4.25C0 4.66421 0.335786 5 0.75 5H1.5V18.5C1.5 18.8978 1.65804 19.2794 1.93934 19.5607C2.22065 19.842 2.60218 20 3 20H15C15.3978 20 15.7794 19.842 16.0607 19.5607C16.342 19.2794 16.5 18.8978 16.5 18.5V5H17.25C17.6642 5 18 4.66421 18 4.25C18 3.83579 17.6642 3.5 17.25 3.5H15.75H13.5V2.75C13.5 2.15326 13.2629 1.58097 12.841 1.15901C12.419 0.737053 11.8467 0.5 11.25 0.5H6.75ZM12 3.5V2.75C12 2.55109 11.921 2.36032 11.7803 2.21967C11.6397 2.07902 11.4489 2 11.25 2H6.75C6.55109 2 6.36032 2.07902 6.21967 2.21967C6.07902 2.36032 6 2.55109 6 2.75V3.5H12ZM5.25 5H3V18.5H15V5H12.75H5.25ZM6.75 8C7.16421 8 7.5 8.33579 7.5 8.75V14.75C7.5 15.1642 7.16421 15.5 6.75 15.5C6.33579 15.5 6 15.1642 6 14.75V8.75C6 8.33579 6.33579 8 6.75 8ZM12 14.75V8.75C12 8.33579 11.6642 8 11.25 8C10.8358 8 10.5 8.33579 10.5 8.75V14.75C10.5 15.1642 10.8358 15.5 11.25 15.5C11.6642 15.5 12 15.1642 12 14.75Z" fill="#34B883"/>
</svg>
   