<svg width="13" height="13" viewBox="0 0 13 13" fill="none" xmlns="http://www.w3.org/2000/svg">
<path fill-rule="evenodd" clip-rule="evenodd" d="M8.5 0.707031C8.36739 0.707031 8.23611 0.733407 8.11379 0.784624C7.99214 0.835557 7.88178 0.910046 7.78905 1.0038L0.2902 8.50264L0.289326 8.50352C0.197155 8.59615 0.124157 8.70604 0.0745116 8.82692C0.0249978 8.94748 -0.000317703 9.07659 3.00947e-06 9.20691V11.9999C3.00947e-06 12.2652 0.10536 12.5195 0.292896 12.7071C0.480433 12.8946 0.734788 12.9999 1 12.9999H3.79282C3.92321 13.0003 4.0524 12.975 4.17303 12.9254C4.2939 12.8758 4.4038 12.8028 4.49643 12.7106L4.49731 12.7098L10.3504 6.8566C10.3515 6.85557 10.3525 6.85455 10.3536 6.85351C10.3546 6.85248 10.3556 6.85144 10.3566 6.8504L11.9946 5.21245L11.9962 5.21088C12.0899 5.11815 12.1644 5.0078 12.2153 4.88616C12.2665 4.76384 12.2929 4.63256 12.2929 4.49995C12.2929 4.36733 12.2665 4.23605 12.2153 4.11373C12.1644 3.99209 12.0899 3.88174 11.9962 3.78902L11.9946 3.78745L9.2125 1.00536L9.21096 1.0038C9.11823 0.910046 9.00787 0.835557 8.88622 0.784624C8.7639 0.733407 8.63262 0.707031 8.5 0.707031ZM10 5.79285L11.2902 4.50264L11.2929 4.49995L11.2902 4.49725L8.5027 1.70975L8.5 1.70703L8.49731 1.70975L7.2071 2.99995L10 5.79285ZM6.5 3.70706L1 9.20705V11.9999H3.7929L9.29289 6.49995L6.5 3.70706Z" fill="black"/>
</svg>
