<svg width="20" height="20" viewBox="0 0 20 20" fill="none" xmlns="http://www.w3.org/2000/svg">
<path fill-rule="evenodd" clip-rule="evenodd" d="M1.42578 2.38672L18.5547 2.38281L18.8398 2.5C18.9922 2.56641 19.1914 2.66797 19.2734 2.72656C19.3555 2.78516 19.4844 2.90234 19.5586 2.98828C19.6328 3.07422 19.7305 3.21484 19.7734 3.30078C19.8203 3.38672 19.8867 3.55469 19.9297 3.67188C20 3.87891 20 4.12891 20 9.98047C20 15.4844 19.9961 16.0938 19.9375 16.2891C19.9023 16.4062 19.832 16.582 19.7852 16.6797C19.7344 16.7773 19.6328 16.9258 19.5586 17.0117C19.4844 17.0977 19.3555 17.2148 19.2734 17.2734C19.1914 17.332 18.9922 17.4336 18.5547 17.6172H1.44531L1.16016 17.5C1.00781 17.4336 0.808594 17.332 0.726562 17.2734C0.644531 17.2148 0.515625 17.0977 0.441406 17.0117C0.367188 16.9258 0.269531 16.7852 0.226562 16.6992C0.179688 16.6133 0.113281 16.4453 0.0703125 16.3281C0 16.1211 0 15.8711 0 10.0195C0 4.51563 0.00390625 3.90625 0.0625 3.71094C0.0976562 3.59375 0.167969 3.41797 0.214844 3.32031C0.265625 3.22266 0.367188 3.07422 0.441406 2.98828C0.515625 2.90234 0.644531 2.78516 0.726562 2.72656C0.808594 2.66797 1 2.56641 1.15234 2.50391L1.42578 2.38672ZM5.46875 6.99219C7.37109 8.87891 9.17578 10.668 9.48438 10.9648L10.043 11.5L17.9883 3.55078L2.01172 3.55469L5.46875 6.99219ZM1.17188 15.6055L6.80469 9.98047C2.69531 5.88672 1.43359 4.63281 1.34766 4.55078L1.19141 4.40234L1.17188 15.6055ZM13.2227 10L18.8281 15.6055C18.8281 6.93359 18.8203 4.41406 18.8164 4.41406C18.8125 4.41406 17.5508 5.67188 16.0156 7.20703L13.2227 10ZM2.01172 16.4453H17.9883L12.3828 10.8398C10.8516 12.3633 10.3516 12.832 10.2812 12.8672C10.2109 12.9023 10.1016 12.9297 10.0391 12.9297C9.97266 12.9297 9.85547 12.8984 9.77344 12.8555C9.69141 12.8125 9.1875 12.3398 8.65234 11.8008C8.11328 11.2617 7.66406 10.8203 7.65234 10.8203C7.64453 10.8203 6.36719 12.0859 4.82031 13.6328L2.01172 16.4453Z" fill="black"/>
</svg>
