<svg width="230" height="101" viewBox="0 0 460 201" fill="none" xmlns="http://www.w3.org/2000/svg">
<path fill-rule="evenodd" clip-rule="evenodd" d="M110.788 65.922V55.2549H44.5547V165.588H112.041V154.92H55.1945V114.371H103.682V104.165H55.1945V65.922H110.788Z" fill="#A8D6DA"/>
<path fill-rule="evenodd" clip-rule="evenodd" d="M193.967 165.584V65.9183H229.217V55.249H147.938V65.9183H183.188V165.584H193.967Z" fill="#A8D6DA"/>
<path fill-rule="evenodd" clip-rule="evenodd" d="M350.301 165.584V55.249H339.524V103.851H281.888V55.249H271.25V165.584H281.888V114.521H339.524V165.584H350.301Z" fill="#A8D6DA"/>
<path fill-rule="evenodd" clip-rule="evenodd" d="M402.078 165.584H412.716V55.4053H402.078V165.584Z" fill="#A8D6DA"/>
<path fill-rule="evenodd" clip-rule="evenodd" d="M439.212 16.3994V26.5418H450.81V190.19H9.18799V26.5418H375.59V16.3994H0V200.335H460V16.3994H439.212Z" fill="#A8D6DA"/>
<path fill-rule="evenodd" clip-rule="evenodd" d="M402.805 42.9471H411.993V26.5459H426.851V16.4035H411.993V0H402.805V16.4035H387.945V26.5459H402.805V42.9471Z" fill="#EBBABA"/>
</svg>
