<svg width="20" height="20" viewBox="0 0 20 20" fill="none" xmlns="http://www.w3.org/2000/svg">
<g opacity="0.8">
<path d="M5.02935 0.0453281C3.69472 0.272263 2.57926 0.863079 1.63992 1.83342C0.841487 2.66291 0.317025 3.66456 0.074364 4.8188C0.00391389 5.15138 0 5.42135 0 10.0031C0 14.4831 0.00391389 14.8587 0.0704501 15.1678C0.579256 17.5976 2.40704 19.4248 4.83366 19.9296C5.14286 19.9961 5.51859 20 10 20C14.4814 20 14.8571 19.9961 15.1663 19.9296C17.5851 19.4248 19.4247 17.5937 19.9256 15.1874C19.9961 14.8548 20 14.5809 20 10.0031C20 5.52308 19.9961 5.14746 19.9296 4.83836C19.7573 4.01279 19.409 3.19504 18.9432 2.52597C18.6262 2.06818 17.8552 1.31304 17.4012 1.00785C16.7476 0.57354 16.0626 0.280088 15.272 0.0922794C14.9159 0.0101147 14.8845 0.0101147 10.1174 0.00228882C6.37573 -0.00553703 5.26027 0.00620079 5.02935 0.0453281ZM15.1389 1.48128C16.0274 1.72778 16.6301 2.07601 17.2798 2.72551C17.9296 3.37502 18.2779 3.97757 18.5245 4.86575L18.6301 5.24919V10.0031V14.757L18.5245 15.1405C18.2779 16.0286 17.9296 16.6312 17.2798 17.2807C16.6301 17.9302 16.0274 18.2784 15.1389 18.5249L14.7554 18.6306H10H5.24462L4.86106 18.5249C3.9726 18.2784 3.36986 17.9302 2.72016 17.2807C2.07045 16.6312 1.72211 16.0286 1.47554 15.1405L1.36986 14.757V10.0031V5.24919L1.47554 4.86575C1.71429 4.00887 2.07045 3.38676 2.68102 2.76073C3.38552 2.04471 4.11742 1.6417 5.08806 1.43433C5.42466 1.3639 5.65166 1.35999 10.0978 1.36782L14.7554 1.37564L15.1389 1.48128Z" fill="#212121"/>
<path d="M7.03254 6.09032C6.39313 6.42353 6.64079 7.38716 7.36576 7.38716C8.00968 7.38716 8.92377 7.59429 9.53616 7.88248C11.3238 8.72002 12.4586 10.3636 12.6117 12.3494C12.6342 12.6601 12.6792 12.9257 12.7197 13.0068C12.9539 13.4616 13.6158 13.4886 13.9085 13.0608C13.9941 12.9348 14.0076 12.8537 14.0076 12.489C14.0076 11.2191 13.5122 9.75569 12.7287 8.71552C11.5039 7.08546 9.7433 6.13985 7.68096 6.01377C7.2667 5.98675 7.21266 5.99125 7.03254 6.09032Z" fill="#212121"/>
<path d="M6.60478 8.68449C6.40215 8.82408 6.29858 9.02671 6.29858 9.27437C6.29858 9.74717 6.52823 9.9363 7.19016 9.99934C8.34741 10.1074 9.27951 10.7558 9.75682 11.778C9.91443 12.1247 10.045 12.6651 10.045 13.0028C10.045 13.2775 10.1936 13.5386 10.4052 13.6557C10.6124 13.7683 10.9681 13.7458 11.1572 13.6107C11.3914 13.4441 11.4589 13.2414 11.4274 12.7731C11.3238 11.1611 10.3827 9.75168 8.9463 9.05373C8.31589 8.74753 7.92864 8.64846 7.27572 8.62145C6.7894 8.59893 6.72186 8.60343 6.60478 8.68449Z" fill="#212121"/>
<path d="M6.42017 11.3186C6.23105 11.4042 6.04643 11.6338 6.0104 11.8274C5.94286 12.1877 6.21304 12.5794 6.56426 12.6335C6.91099 12.6875 7.06859 12.7505 7.18116 12.8811C7.29374 13.0162 7.3883 13.2729 7.3883 13.444C7.3883 13.5791 7.5504 13.8177 7.71251 13.9213C7.82958 13.9888 7.91964 14.0068 8.10876 13.9978C8.55005 13.9663 8.75718 13.7277 8.74818 13.2549C8.73917 12.7505 8.57256 12.3318 8.22134 11.9445C7.99169 11.6924 7.61344 11.4492 7.31175 11.3591C7.00105 11.2691 6.57327 11.2511 6.42017 11.3186Z" fill="#212121"/>
</g>
</svg>
