<svg width="20" height="20" viewBox="0 0 20 20" fill="none" xmlns="http://www.w3.org/2000/svg">
<path fill-rule="evenodd" clip-rule="evenodd" d="M1.63992 1.83342C2.57926 0.863079 3.69472 0.272264 5.02935 0.0453281C5.26027 0.00620079 6.37573 -0.00553703 10.1174 0.00228882L10.1267 0.00230598H10.1268H10.1268C14.8846 0.0101147 14.9161 0.0101662 15.272 0.0922794C16.0626 0.280088 16.7476 0.57354 17.4012 1.00785C17.8552 1.31304 18.6262 2.06819 18.9432 2.52597C19.409 3.19504 19.7573 4.01279 19.9296 4.83836C19.9961 5.14746 20 5.52308 20 10.0031C20 14.5809 19.9961 14.8548 19.9256 15.1874C19.4247 17.5937 17.5851 19.4248 15.1663 19.9296C14.8571 19.9961 14.4814 20 10 20C5.51859 20 5.14286 19.9961 4.83366 19.9296C2.40705 19.4248 0.579256 17.5976 0.0704501 15.1678C0.00391389 14.8587 0 14.4831 0 10.0031C0 5.42135 0.00391389 5.15138 0.074364 4.8188C0.317025 3.66456 0.841487 2.66291 1.63992 1.83342ZM7.366 7.38716C6.64103 7.38716 6.39337 6.42354 7.03279 6.09032C7.2129 5.99125 7.26694 5.98675 7.68121 6.01377C9.74354 6.13985 11.5042 7.08546 12.729 8.71552C13.5125 9.75569 14.0078 11.2191 14.0078 12.489C14.0078 12.8537 13.9943 12.9348 13.9087 13.0608C13.6161 13.4886 12.9541 13.4616 12.72 13.0068C12.6794 12.9257 12.6344 12.6601 12.6119 12.3494C12.4588 10.3636 11.3241 8.72002 9.53641 7.88248C8.92401 7.59429 8.00992 7.38716 7.366 7.38716ZM6.60503 8.68449C6.4024 8.82408 6.29883 9.02671 6.29883 9.27437C6.29883 9.74717 6.52848 9.9363 7.19041 9.99934C8.34766 10.1074 9.27976 10.7558 9.75707 11.778C9.91467 12.1247 10.0453 12.6651 10.0453 13.0028C10.0453 13.2775 10.1939 13.5386 10.4055 13.6557C10.6126 13.7683 10.9684 13.7458 11.1575 13.6107C11.3916 13.4441 11.4592 13.2414 11.4276 12.7731C11.3241 11.1611 10.383 9.75168 8.94654 9.05373C8.31613 8.74753 7.92888 8.64846 7.27596 8.62145C6.78965 8.59893 6.7221 8.60343 6.60503 8.68449ZM6.0104 11.8274C6.04643 11.6338 6.23105 11.4042 6.42017 11.3186C6.57327 11.2511 7.00105 11.2691 7.31175 11.3591C7.61344 11.4492 7.99169 11.6924 8.22134 11.9445C8.57256 12.3318 8.73917 12.7505 8.74818 13.2549C8.75718 13.7277 8.55005 13.9663 8.10876 13.9978C7.91964 14.0068 7.82958 13.9888 7.71251 13.9213C7.5504 13.8177 7.3883 13.5791 7.3883 13.444C7.3883 13.2729 7.29374 13.0162 7.18116 12.8811C7.06859 12.7505 6.91099 12.6875 6.56426 12.6335C6.21304 12.5794 5.94286 12.1877 6.0104 11.8274Z" fill="#fff"/>
</svg>
