<svg width="25" height="15" viewBox="0 0 22 12" fill="none" xmlns="http://www.w3.org/2000/svg">
<path fill-rule="evenodd" clip-rule="evenodd" d="M0.5 1.35864C0.5 0.944429 0.835786 0.608643 1.25 0.608643H20.75C21.1642 0.608643 21.5 0.944429 21.5 1.35864C21.5 1.77286 21.1642 2.10864 20.75 2.10864H1.25C0.835786 2.10864 0.5 1.77286 0.5 1.35864ZM4.25 5.85864C4.25 5.44443 4.58579 5.10864 5 5.10864H17C17.4142 5.10864 17.75 5.44443 17.75 5.85864C17.75 6.27286 17.4142 6.60864 17 6.60864H5C4.58579 6.60864 4.25 6.27286 4.25 5.85864ZM8.75 9.60864C8.33579 9.60864 8 9.94443 8 10.3586C8 10.7729 8.33579 11.1086 8.75 11.1086H13.25C13.6642 11.1086 14 10.7729 14 10.3586C14 9.94443 13.6642 9.60864 13.25 9.60864H8.75Z" fill="#A8D6DA"/>
</svg>
