<svg width="20" height="20" viewBox="0 0 20 20" fill="#77838F" xmlns="http://www.w3.org/2000/svg">
<path fill-rule="evenodd" clip-rule="evenodd" d="M1.63992 1.83342C2.57926 0.863078 3.69472 0.272263 5.02935 0.0453278C5.26027 0.00620102 6.37573 -0.00553686 10.1174 0.0022885L10.1266 0.00230357C14.8846 0.0101139 14.9161 0.0101656 15.272 0.0922791C16.0626 0.280088 16.7476 0.573539 17.4012 1.00785C17.8552 1.31304 18.6262 2.06818 18.9432 2.52597C19.409 3.19504 19.7573 4.01279 19.9296 4.83836C19.9961 5.14746 20 5.52308 20 10.0031C20 14.5809 19.9961 14.8548 19.9256 15.1874C19.4247 17.5937 17.5851 19.4248 15.1663 19.9296C14.8571 19.9961 14.4814 20 10 20C5.51859 20 5.14286 19.9961 4.83366 19.9296C2.40705 19.4248 0.579256 17.5976 0.0704501 15.1678C0.00391389 14.8587 0 14.4831 0 10.0031C0 5.42135 0.00391389 5.15138 0.074364 4.8188C0.317025 3.66456 0.841487 2.66291 1.63992 1.83342ZM9.24451 3.37078C7.87073 3.63293 6.68874 4.63849 6.21907 5.95315C5.22103 8.75072 7.40498 11.5796 10.3756 11.3292C13.178 11.0944 14.857 8.066 13.5968 5.52667C13.0801 4.48981 12.1564 3.74248 10.9979 3.42947C10.5831 3.316 9.69069 3.28861 9.24451 3.37078ZM10.8022 4.81847C11.2602 4.97107 11.5067 5.12757 11.8629 5.47971C12.403 6.02358 12.6379 6.59483 12.6339 7.36171C12.6339 7.86254 12.5322 8.24207 12.2817 8.67246C12.0977 8.98156 11.6594 9.42761 11.358 9.60759C10.8453 9.90887 10.2347 10.038 9.68287 9.96365C9.06056 9.87757 8.58698 9.64281 8.14079 9.20067C6.95097 8.01122 7.13101 6.10183 8.52827 5.14322C9.1858 4.68935 10.0547 4.56415 10.8022 4.81847ZM8.23862 12.6915C7.11533 12.8285 6.02336 13.2941 5.1349 14.0062C4.767 14.3035 4.66132 14.4405 4.61827 14.6635C4.53216 15.1291 4.99792 15.5673 5.45584 15.4421C5.60457 15.403 5.66328 15.3639 6.176 14.9609C6.69263 14.554 7.4715 14.2096 8.15643 14.0923C8.6261 14.0101 11.3737 14.0101 11.8472 14.0923C12.2621 14.1627 12.7122 14.3114 13.1114 14.5148C13.4872 14.7026 13.6868 14.8318 14.0586 15.133C14.3717 15.3913 14.4774 15.4421 14.7044 15.4421C15.1623 15.4421 15.4911 14.9257 15.311 14.4914C15.1349 14.0727 13.902 13.2745 12.947 12.9615C12.1603 12.6993 12.0664 12.6915 10.1369 12.6837C9.17013 12.6759 8.31299 12.6798 8.23862 12.6915Z" fill="#77838F"/>
</svg>
