<svg width="505px" height="20" viewBox="0 0 405 405" fill="none" xmlns="http://www.w3.org/2000/svg">
    <path
        d="M202.5 383.548C178.162 383.548 154.114 378.262 132.019 368.056C109.923 357.849 90.3086 342.966 74.53 324.435C58.7515 305.904 47.1857 284.168 40.6324 260.728C34.0791 237.289 32.6946 212.706 36.5745 188.678C40.4545 164.651 49.5065 141.753 63.1045 121.568C76.7025 101.383 94.5222 84.3912 115.332 71.7686C136.141 59.146 159.443 51.1934 183.628 48.4606C207.812 45.7277 232.302 48.2799 255.403 55.9406C256.623 56.3497 257.747 57.0043 258.705 57.8641C259.662 58.7239 260.434 59.7706 260.972 60.9399C261.505 62.1236 261.78 63.407 261.78 64.7051C261.78 66.0032 261.505 67.2865 260.972 68.4703C258.871 73.8333 257.798 79.5435 257.808 85.3031C257.796 93.6236 260.101 101.783 264.466 108.867C268.83 115.951 275.081 121.68 282.518 125.411C289.955 129.143 298.284 130.73 306.571 129.994C314.859 129.259 322.779 126.23 329.442 121.247C330.483 120.483 331.668 119.938 332.926 119.644C334.183 119.351 335.487 119.316 336.759 119.541C338.031 119.765 339.243 120.246 340.324 120.952C341.405 121.659 342.332 122.577 343.048 123.652C359.578 148.996 368.961 178.333 370.204 208.566C371.448 238.799 364.506 268.807 350.113 295.423C335.719 322.039 314.407 344.276 288.426 359.787C262.445 375.297 232.759 383.506 202.5 383.548ZM202.5 66.4453C171.504 66.4412 141.278 76.102 116.03 94.0826C90.7827 112.063 71.7697 137.469 61.6385 166.762C51.5073 196.056 50.762 227.779 59.5066 257.516C68.2511 287.253 86.0502 313.523 110.426 332.67C117.468 338.177 124.986 343.047 132.891 347.224C154.333 358.588 178.232 364.53 202.5 364.53C226.768 364.53 250.667 358.588 272.109 347.224C279.992 343.044 287.488 338.173 294.511 332.67C322.624 310.702 341.918 279.375 348.886 244.384C355.854 209.393 350.032 173.064 332.48 142.003C322.728 147.053 311.838 149.503 300.863 149.115C289.887 148.728 279.198 145.516 269.826 139.79C260.455 134.064 252.719 126.018 247.365 116.429C242.012 106.84 239.223 96.0321 239.266 85.05C239.175 80.4428 239.578 75.8391 240.469 71.318C228.072 68.082 215.312 66.4445 202.5 66.4453Z"
        fill="black" />
    <path
        d="M202.5 263.63C193.815 263.567 185.343 260.935 178.153 256.064C170.962 251.194 165.374 244.303 162.094 236.262C158.813 228.22 157.987 219.387 159.72 210.877C161.453 202.366 165.666 194.559 171.829 188.44C177.992 182.321 185.829 178.164 194.352 176.492C202.875 174.821 211.701 175.71 219.719 179.048C227.737 182.386 234.587 188.023 239.406 195.248C244.225 202.474 246.797 210.964 246.797 219.649C246.713 231.343 242.01 242.529 233.711 250.767C225.413 259.006 214.194 263.63 202.5 263.63ZM202.5 194.653C197.57 194.716 192.769 196.234 188.7 199.019C184.631 201.803 181.477 205.728 179.633 210.301C177.79 214.873 177.34 219.889 178.34 224.717C179.34 229.545 181.745 233.969 185.253 237.433C188.761 240.897 193.215 243.247 198.055 244.186C202.895 245.125 207.905 244.612 212.454 242.711C217.003 240.81 220.888 237.606 223.621 233.503C226.354 229.399 227.812 224.579 227.813 219.649C227.729 212.991 225.026 206.634 220.288 201.955C215.55 197.276 209.159 194.653 202.5 194.653Z"
        fill="black" />
    <path
        d="M202.5 383.548C175.098 383.546 148.113 376.833 123.905 363.994C122.373 363.17 121.093 361.946 120.202 360.453C119.311 358.96 118.841 357.253 118.842 355.514C118.842 333.327 127.656 312.048 143.345 296.359C159.034 280.67 180.313 271.856 202.5 271.856C224.687 271.856 245.966 280.67 261.655 296.359C277.344 312.048 286.158 333.327 286.158 355.514C286.159 357.253 285.689 358.96 284.798 360.453C283.906 361.946 282.627 363.17 281.095 363.994C256.887 376.833 229.902 383.546 202.5 383.548ZM138.143 349.945C158.276 359.417 180.251 364.328 202.5 364.328C224.749 364.328 246.724 359.417 266.857 349.945C265.272 333.978 257.807 319.169 245.913 308.398C234.02 297.627 218.546 291.661 202.5 291.661C186.454 291.661 170.98 297.627 159.087 308.398C147.193 319.169 139.728 333.978 138.143 349.945Z"
        fill="black" />
    <path
        d="M302.801 149.154C287.623 149.199 272.926 143.836 261.344 134.027C249.762 124.217 242.053 110.603 239.6 95.6248C237.147 80.6467 240.109 65.2845 247.956 52.2926C255.803 39.3007 268.021 29.5289 282.42 24.7293C296.818 19.9296 312.456 20.4162 326.529 26.1015C340.601 31.7869 352.189 42.2994 359.213 55.7539C366.237 69.2085 368.238 84.7252 364.859 99.5218C361.479 114.318 352.939 127.427 340.77 136.498C329.816 144.713 316.493 149.154 302.801 149.154ZM302.801 40.4367C293.847 40.4233 285.095 43.0928 277.673 48.1009C270.251 53.1089 264.5 60.2259 261.162 68.5336C259.056 73.873 257.982 79.5635 257.998 85.3031C257.998 94.1796 260.631 102.857 265.563 110.236C270.496 117.616 277.507 123.366 285.709 126.76C293.911 130.154 302.935 131.039 311.64 129.303C320.345 127.566 328.34 123.287 334.612 117.006C340.884 110.725 345.152 102.725 346.876 94.0173C348.6 85.3099 347.703 76.2868 344.297 68.0896C340.892 59.8925 335.131 52.8897 327.744 47.9673C320.358 43.0449 311.677 40.4242 302.801 40.4367Z"
        fill="black" />
    <path
        d="M288 70.8409C288 52.3863 317 52.3864 317 70.841C317 84.0226 303.818 81.3859 303.818 97.2041"
        stroke="black" stroke-width="10" stroke-linecap="round" stroke-linejoin="round" />
    <path d="M303.852 113.105L303.89 113.062" stroke="black" stroke-width="10"
        stroke-linecap="round" stroke-linejoin="round" />
</svg>