<svg width="20" height="21" viewBox="0 0 20 21" fill="none" xmlns="http://www.w3.org/2000/svg">
<path d="M9.36499 0.996975C9.21515 1.02995 9.0112 1.08767 8.90715 1.12477C8.61163 1.23609 1.50672 5.08661 1.20704 5.30098C0.67428 5.68026 0.249733 6.31102 0.0832444 6.97064C0.00416221 7.28808 0 7.44062 0 12.8289C0 18.2336 0 18.3697 0.0832444 18.683C0.362113 19.7549 1.19039 20.5794 2.28922 20.8762C2.54312 20.9463 3.00096 20.9504 9.98933 20.9504C18.3804 20.9504 17.5979 20.9834 18.3554 20.6124C18.6842 20.4557 18.8132 20.3609 19.1087 20.0682C19.4043 19.7755 19.5 19.6477 19.6582 19.322C20.0286 18.5799 19.9995 19.12 19.9995 12.8083C19.9995 7.52719 19.9953 7.20563 19.9245 6.95415C19.7414 6.31514 19.3169 5.67614 18.834 5.31747C18.5926 5.13608 11.7375 1.4216 11.2255 1.19074C10.8842 1.0382 10.5762 0.97636 10.0934 0.955748C9.78121 0.94338 9.55229 0.95575 9.36499 0.996975ZM10.622 2.42752C10.8176 2.51822 16.5823 5.61018 17.5687 6.15436C18.243 6.5254 18.526 6.91704 18.6093 7.57666C18.6343 7.79928 18.6467 9.76165 18.6384 13.0762L18.6265 17.9796C18.6261 18.1446 18.5934 18.3079 18.5302 18.4604C18.3845 18.8149 18.1972 19.0705 17.9308 19.2643C17.4397 19.6188 18.1889 19.59 9.96851 19.59H2.93086C2.76818 19.59 2.60696 19.5592 2.45571 19.4993C1.98954 19.3096 1.6524 18.9633 1.44845 18.4645C1.38522 18.3093 1.35251 18.1433 1.35211 17.9758L1.34023 13.0762C1.33191 9.72042 1.3444 7.79928 1.37353 7.57254C1.42764 7.10669 1.58997 6.78512 1.9063 6.49654C2.0936 6.32751 2.72209 5.97297 5.01547 4.7403C9.24845 2.46462 9.28175 2.44813 9.51067 2.36568C9.80619 2.26262 10.3181 2.29148 10.622 2.42752Z" fill="#212121"/>
</svg>
