<svg width="20" height="21" viewBox="0 0 20 21" fill="none" xmlns="http://www.w3.org/2000/svg">
<path d="M9.36499 0.536037C9.21515 0.569017 9.0112 0.626734 8.90715 0.663837C8.61163 0.775148 1.50672 4.62567 1.20704 4.84004C0.67428 5.21932 0.249733 5.85008 0.0832444 6.5097C0.00416221 6.82714 0 6.97968 0 12.3679C0 17.7727 0 17.9087 0.0832444 18.222C0.362113 19.2939 1.19039 20.1184 2.28922 20.4153C2.54312 20.4854 3.00096 20.4895 9.98933 20.4895C18.3804 20.4895 17.5979 20.5225 18.3554 20.1514C18.6842 19.9948 18.8132 19.8999 19.1087 19.6072C19.4043 19.3145 19.5 19.1867 19.6582 18.8611C20.0286 18.119 19.9995 18.659 19.9995 12.3473C19.9995 7.06626 19.9953 6.74469 19.9245 6.49321C19.7414 5.85421 19.3169 5.2152 18.834 4.85653C18.5926 4.67514 11.7375 0.960665 11.2255 0.729799C10.8842 0.577263 10.5762 0.515423 10.0934 0.49481C9.78121 0.482443 9.55229 0.494812 9.36499 0.536037Z" fill="#fff"/>
</svg>
