<svg width="19" height="19" viewBox="0 0 19 19" fill="none" xmlns="http://www.w3.org/2000/svg">
<path fill-rule="evenodd" clip-rule="evenodd" d="M12.75 0.560547C12.5511 0.560547 12.3542 0.600111 12.1707 0.676935C11.9882 0.753336 11.8227 0.86507 11.6836 1.00569L9.21967 3.46961L0.435299 12.254L0.433989 12.2553C0.295732 12.3942 0.186236 12.5591 0.111767 12.7404C0.0374967 12.9212 -0.000476555 13.1149 4.51421e-06 13.3104V17.4999C4.51421e-06 17.8977 0.15804 18.2793 0.439345 18.5606C0.72065 18.8419 1.10218 18.9999 1.5 18.9999H5.68924C5.88482 19.0004 6.07861 18.9625 6.25954 18.8882C6.44086 18.8137 6.6057 18.7042 6.74465 18.5659L6.74596 18.5646L15.5256 9.78495C15.5272 9.7834 15.5288 9.78184 15.5303 9.78027C15.5319 9.7787 15.5335 9.77713 15.535 9.77555L17.9919 7.31867L17.9943 7.31631C18.1349 7.17723 18.2466 7.01169 18.323 6.82924C18.3998 6.64577 18.4394 6.44884 18.4394 6.24992C18.4394 6.051 18.3998 5.85407 18.323 5.67059C18.2466 5.48814 18.1349 5.32261 17.9943 5.18352L17.9919 5.18117L13.8188 1.00804L13.8164 1.00569C13.6773 0.86507 13.5118 0.753336 13.3293 0.676935C13.1459 0.600111 12.9489 0.560547 12.75 0.560547ZM15 8.18927L16.9353 6.25396L16.9394 6.24992L16.9353 6.24587L12.7541 2.06462L12.75 2.06055L12.746 2.06462L10.8107 3.99993L15 8.18927ZM9.74999 5.06059L1.5 13.3106V17.4999H5.68935L13.9393 9.24993L9.74999 5.06059Z" fill="white"/>
</svg>
