<svg width="26" height="22" viewBox="0 0 26 22" fill="none" xmlns="http://www.w3.org/2000/svg">
<path fill-rule="evenodd" clip-rule="evenodd" d="M0 2C0 0.895431 0.895431 0 2 0H24C25.1046 0 26 0.895431 26 2V17.999V18.001V20C26 21.1046 25.1046 22 24 22H2C0.895431 22 0 21.1046 0 20V16.0001V15.9999V2ZM24 2V15.5858L20.425 12.0108L20.4218 12.0076C20.2364 11.8201 20.0157 11.6712 19.7724 11.5693C19.5278 11.4669 19.2652 11.4141 19 11.4141C18.7348 11.4141 18.4722 11.4669 18.2276 11.5693C17.9843 11.6712 17.7636 11.8201 17.5782 12.0076L15.0054 14.5804L15 14.5858L14.9946 14.5804L9.42186 9.00762C9.23641 8.82015 9.0157 8.67119 8.77244 8.56933C8.52779 8.4669 8.26522 8.41414 8 8.41414C7.73478 8.41414 7.47221 8.4669 7.22757 8.56933C6.9843 8.67119 6.76359 8.82015 6.57814 9.00762L2 13.5858V2H24ZM2 20V16.4142L7.99461 10.4196L8 10.4141L8.00539 10.4196L13.5782 15.9924C13.7636 16.1798 13.9843 16.3288 14.2276 16.4306C14.4722 16.533 14.7348 16.5858 15 16.5858C15.2652 16.5858 15.5278 16.533 15.7724 16.4306C16.0157 16.3288 16.2364 16.1798 16.4218 15.9924L18.9946 13.4196L19 13.4141L19.0054 13.4196L24 18.4142V20H2ZM18 7.5C18 8.32843 17.3284 9 16.5 9C15.6716 9 15 8.32843 15 7.5C15 6.67157 15.6716 6 16.5 6C17.3284 6 18 6.67157 18 7.5Z" fill="#8A92A6"/>
</svg>
