<svg width="28" height="22" viewBox="0 0 28 22" fill="none" xmlns="http://www.w3.org/2000/svg">
<path fill-rule="evenodd" clip-rule="evenodd" d="M13.9816 0.0498047L13.9985 0.0498479H14.0015L14.0184 0.0498047L14.0812 0.0498347C14.1357 0.0499567 14.215 0.0503519 14.3169 0.0514327C14.5206 0.0535939 14.8144 0.0584984 15.1794 0.0694534C15.9088 0.0913461 16.9254 0.13749 18.0763 0.234658C20.3527 0.426848 23.2507 0.82571 25.4819 1.67823L25.4966 1.68398C25.9349 1.85941 26.3258 2.13539 26.6378 2.48966C26.9498 2.84393 27.1742 3.26657 27.2929 3.7235L27.2939 3.72726C27.6053 4.94582 28 7.2055 28 10.9999C28 14.7942 27.6053 17.0539 27.2939 18.2725L27.2929 18.2762C27.1742 18.7332 26.9498 19.1558 26.6378 19.5101C26.3258 19.8643 25.9349 20.1403 25.4966 20.3158L25.4819 20.3215C23.2507 21.174 20.3527 21.5729 18.0763 21.7651C16.9254 21.8622 15.9088 21.9084 15.1794 21.9303C14.8144 21.9412 14.5206 21.9461 14.3169 21.9483C14.215 21.9494 14.1357 21.9498 14.0812 21.9499L14.0184 21.9499L14.0015 21.9499H13.9985L13.9816 21.9499L13.9188 21.9499C13.8643 21.9498 13.785 21.9494 13.6831 21.9483C13.4794 21.9461 13.1856 21.9412 12.8206 21.9303C12.0912 21.9084 11.0746 21.8622 9.92368 21.7651C7.64733 21.5729 4.74928 21.174 2.51808 20.3215L2.50338 20.3158C2.06511 20.1403 1.6742 19.8643 1.36218 19.5101C1.05016 19.1558 0.825774 18.7332 0.707108 18.2762L0.706137 18.2725C0.394729 17.0539 0 14.7942 0 10.9999C0 7.2055 0.394729 4.94582 0.706137 3.72726L0.707108 3.7235C0.825774 3.26657 1.05016 2.84393 1.36218 2.48966C1.6742 2.13539 2.06511 1.85941 2.50338 1.68398L2.51808 1.67823C4.74928 0.82571 7.64733 0.426848 9.92368 0.234658C11.0746 0.13749 12.0912 0.0913461 12.8206 0.0694534C13.1856 0.0584984 13.4794 0.0535939 13.6831 0.0514327C13.785 0.0503519 13.8643 0.0499567 13.9188 0.0498347L13.9816 0.0498047ZM14.0086 19.9499L14.0054 19.9499V14.8648L18.5547 11.832C18.8329 11.6465 19 11.3343 19 10.9999C19 10.6655 18.8329 10.3533 18.5547 10.1679L14.0054 7.13499V2.04985L14.0086 2.04984L14.0217 2.0498L14.0767 2.04983C14.1259 2.04994 14.1996 2.0503 14.2957 2.05132C14.4877 2.05336 14.7686 2.05802 15.1194 2.06855C15.8216 2.08963 16.8011 2.13411 17.9081 2.22757C20.1441 2.41635 22.8041 2.79791 24.7596 3.54327C24.9044 3.60234 25.0336 3.69415 25.1369 3.81154C25.2414 3.93017 25.3167 4.07161 25.3567 4.22454C25.6202 5.25671 26 7.34667 26 10.9999C26 14.653 25.6202 16.743 25.3567 17.7752C25.3167 17.9281 25.2414 18.0696 25.1369 18.1882C25.0335 18.3056 24.9044 18.3974 24.7596 18.4565C22.8041 19.2018 20.1441 19.5834 17.9081 19.7722C16.8011 19.8656 15.8216 19.9101 15.1194 19.9312C14.7686 19.9417 14.4877 19.9464 14.2957 19.9484C14.1996 19.9494 14.1259 19.9498 14.0767 19.9499L14.0217 19.9499L14.0086 19.9499ZM14.0054 9.53869L16.1972 10.9999L14.0054 12.4611V9.53869ZM13.9962 7.12888L13.9946 2.04985L13.9914 2.04984L13.9783 2.0498L13.9233 2.04983C13.8741 2.04994 13.8004 2.0503 13.7043 2.05132C13.5123 2.05336 13.2314 2.05802 12.8806 2.06855C12.1784 2.08963 11.1989 2.13411 10.0919 2.22757C7.8559 2.41635 5.19591 2.79791 3.2404 3.54326C3.09562 3.60233 2.96645 3.69415 2.86306 3.81154C2.75856 3.9302 2.6833 4.07168 2.64331 4.22464C2.37974 5.25685 2 7.3468 2 10.9999C2 14.6529 2.37973 16.7429 2.6433 17.7751C2.68329 17.928 2.75855 18.0695 2.86306 18.1882C2.96646 18.3056 3.09563 18.3974 3.24043 18.4565C5.19594 19.2018 7.85592 19.5834 10.0919 19.7722C11.1989 19.8656 12.1784 19.9101 12.8806 19.9312C13.2314 19.9417 13.5123 19.9464 13.7043 19.9484C13.8004 19.9494 13.8741 19.9498 13.9233 19.9499L13.9783 19.9499L13.9914 19.9499L13.9946 19.9499L14.0004 19.9499L13.9988 14.8692L12.5547 15.832C12.2478 16.0365 11.8533 16.0556 11.5281 15.8816C11.203 15.7076 11 15.3687 11 14.9999V6.9999C11 6.63111 11.203 6.29225 11.5281 6.11823C11.8533 5.94421 12.2478 5.96328 12.5547 6.16785L13.9962 7.12888ZM13.998 12.4661L13 13.1314V8.86842L13.997 9.5331L13.998 12.4661Z" fill="#8A92A6"/>
</svg>
