<svg width="20" height="28" viewBox="0 0 20 28" fill="none" xmlns="http://www.w3.org/2000/svg">
<path fill-rule="evenodd" clip-rule="evenodd" d="M9.99992 2C7.79078 2 5.99992 3.79086 5.99992 6V14C5.99992 16.2091 7.79078 18 9.99992 18C12.2091 18 13.9999 16.2091 13.9999 14V6C13.9999 3.79086 12.2091 2 9.99992 2ZM3.99992 6C3.99992 2.68629 6.68621 0 9.99992 0C13.3136 0 15.9999 2.68629 15.9999 6V14C15.9999 17.3137 13.3136 20 9.99992 20C6.68621 20 3.99992 17.3137 3.99992 14V6ZM10.9999 23.9029C13.0889 23.6933 15.0686 22.8307 16.6506 21.425C18.4833 19.7965 19.6547 17.5522 19.943 15.1176C20.0079 14.5691 19.6159 14.0719 19.0675 14.007C18.519 13.942 18.0218 14.334 17.9568 14.8825C17.7262 16.8308 16.7887 18.6268 15.3221 19.9299C13.8556 21.2331 11.9618 21.953 9.9999 21.953C8.03798 21.953 6.14424 21.2331 4.67766 19.9299C3.21109 18.6268 2.27362 16.8308 2.04297 14.8825C1.97804 14.334 1.48079 13.942 0.932337 14.007C0.383882 14.0719 -0.00809272 14.5691 0.0568366 15.1176C0.345064 17.5522 1.51653 19.7965 3.34918 21.425C4.93118 22.8307 6.91094 23.6933 8.99992 23.9029V27C8.99992 27.5523 9.44763 28 9.99992 28C10.5522 28 10.9999 27.5523 10.9999 27V23.9029Z" fill="#8A92A6"/>
</svg>
