<svg width="20" height="18" viewBox="0 0 20 18" fill="none" xmlns="http://www.w3.org/2000/svg">
<path fill-rule="evenodd" clip-rule="evenodd" d="M7.75012 0C7.15338 0 6.58109 0.237053 6.15913 0.65901C5.73718 1.08097 5.50012 1.65326 5.50012 2.25V3H1.75012C0.921695 3 0.250122 3.67157 0.250122 4.5V8.82642C0.249959 8.83544 0.24996 8.84446 0.250122 8.85346V16.5C0.250122 17.3284 0.921695 18 1.75012 18H18.2501C19.0785 18 19.7501 17.3284 19.7501 16.5V8.85372C19.7503 8.84454 19.7503 8.83535 19.7501 8.82616V4.5C19.7501 3.67157 19.0785 3 18.2501 3H14.5001V2.25C14.5001 1.65326 14.2631 1.08097 13.8411 0.65901C13.4192 0.237053 12.8469 0 12.2501 0H7.75012ZM1.75012 16.5V10.0922C4.31173 11.3518 7.13464 12.0073 10.0006 12C12.8659 12.0032 15.6878 11.3474 18.2501 10.0905V16.5H1.75012ZM10.001 10.5C12.8854 10.5034 15.7219 9.7808 18.2501 8.4018V4.5H13.7501H6.25012H1.75012V8.40248C4.27655 9.78486 7.11365 10.5075 9.99817 10.5L10.001 10.5ZM13.0001 3V2.25C13.0001 2.05109 12.9211 1.86032 12.7805 1.71967C12.6398 1.57902 12.449 1.5 12.2501 1.5H7.75012C7.55121 1.5 7.36044 1.57902 7.21979 1.71967C7.07914 1.86032 7.00012 2.05109 7.00012 2.25V3H13.0001ZM8.87512 7.5C8.46091 7.5 8.12512 7.83579 8.12512 8.25C8.12512 8.66421 8.46091 9 8.87512 9H11.1251C11.5393 9 11.8751 8.66421 11.8751 8.25C11.8751 7.83579 11.5393 7.5 11.1251 7.5H8.87512Z" fill="#77838F"/>
</svg>
