<svg width="18" height="18" viewBox="0 0 18 18" fill="none" xmlns="http://www.w3.org/2000/svg">
<path fill-rule="evenodd" clip-rule="evenodd" d="M11.0486 0.114347C10.8418 0.0257136 10.6983 -0.00383093 10.5041 0.000389709H10.4999C10.3395 0.000389709 10.1412 0.0383755 9.98501 0.0932438C9.84573 0.143891 9.6347 0.253628 9.52074 0.338041C9.34769 0.46466 9.0016 0.920489 7.63833 2.82822C6.71823 4.11551 5.81924 5.34794 5.64197 5.56741C5.49085 5.75017 5.21388 6.06755 4.9719 6.33434C4.9901 6.38619 5 6.44194 5 6.5V16.5C5 16.5564 4.99066 16.6106 4.97346 16.6611C5.17707 16.8435 5.31457 16.9318 5.53223 17.0391C5.7306 17.1362 6.03027 17.2544 6.19487 17.3008C6.49032 17.381 6.64226 17.3852 9.76131 17.3852H13.0239C13.5472 17.2164 13.7836 17.1193 13.8891 17.0602C13.9946 16.9969 14.1888 16.8407 14.3238 16.7141C14.4589 16.5833 14.6235 16.3933 14.691 16.2878C14.7586 16.1823 15.4845 14.5785 16.3117 12.7214C17.1348 10.8643 17.8523 9.19294 17.9071 9.00723C17.9873 8.71601 18 8.57673 18 7.97318C17.9958 7.42871 17.9789 7.21768 17.9156 7.00243C17.8734 6.85049 17.7679 6.62257 17.6877 6.49595C17.6033 6.36933 17.4513 6.19207 17.3458 6.10765C17.2445 6.02324 17.0546 5.90506 16.928 5.84597C16.8013 5.78689 16.5819 5.71935 16.4426 5.69403C16.2906 5.66871 15.1426 5.65182 13.6021 5.65182C11.5551 5.65182 11.0233 5.63916 11.0359 5.60118C11.0444 5.57163 11.3018 4.92165 11.61 4.1535C11.9181 3.38534 12.1966 2.66361 12.2262 2.54965C12.2599 2.43148 12.2853 2.20356 12.2853 2.04318C12.2853 1.88279 12.2557 1.638 12.2219 1.50294C12.1882 1.3721 12.108 1.16107 12.0489 1.03867C11.9856 0.920489 11.8843 0.751663 11.821 0.671471C11.7577 0.591279 11.6226 0.456219 11.5213 0.376027C11.42 0.295834 11.209 0.177657 11.0486 0.114347ZM4.00002 16.5032C4.00001 16.5022 4 16.5011 4 16.5V6.53917C3.94459 6.4737 3.88345 6.40725 3.82288 6.34823C3.62451 6.14986 3.4388 6.00636 3.25309 5.92195C3.10115 5.85019 2.89012 5.76578 2.77616 5.74046C2.66642 5.71513 2.43007 5.69403 2.24858 5.68981C2.07131 5.68981 1.82651 5.71091 1.71256 5.73624C1.59438 5.76578 1.37913 5.85019 1.22718 5.92195C1.05414 6.00214 0.851547 6.15408 0.67428 6.32713C0.505455 6.49173 0.345071 6.70276 0.264879 6.85471C0.197348 6.99399 0.108715 7.21346 0.0665085 7.34008C-0.00102171 7.55533 -0.00524235 7.88876 0.00319893 11.5396L0.0116402 15.507C0.155142 15.9671 0.247996 16.1781 0.311305 16.2794C0.374615 16.3765 0.505455 16.5453 0.60253 16.655C0.703825 16.7605 0.897974 16.9251 1.03726 17.0138C1.17654 17.1066 1.44244 17.2248 1.62814 17.2797C1.83918 17.3472 2.07131 17.3852 2.24014 17.3852C2.40896 17.3852 2.6411 17.3472 2.85213 17.2797C3.03784 17.2248 3.30374 17.1066 3.44302 17.0138C3.5823 16.9251 3.78911 16.7479 3.90307 16.6213C3.93448 16.585 3.96762 16.5446 4.00002 16.5032Z" fill="#A8D6DA"/>
</svg>
