<svg width="24" height="24" viewBox="0 0 24 24" fill="none" xmlns="http://www.w3.org/2000/svg">
<g clip-path="url(#clip0_343_16856)">
<path fill-rule="evenodd" clip-rule="evenodd" d="M7.22703 4.97703C8.4929 3.71116 10.2098 3 12 3C13.7902 3 15.5071 3.71116 16.773 4.97703C18.0388 6.2429 18.75 7.95979 18.75 9.75C18.75 12.855 17.0161 15.6822 15.184 17.7891C14.2772 18.832 13.3684 19.6729 12.6861 20.2528C12.4163 20.4821 12.1828 20.6699 12 20.8125C11.8172 20.6699 11.5837 20.4821 11.3139 20.2528C10.6316 19.6729 9.72283 18.832 8.81595 17.7891C6.98389 15.6822 5.25 12.855 5.25 9.75C5.25 7.95979 5.96116 6.2429 7.22703 4.97703ZM11.5695 22.3641C11.5697 22.3643 11.5699 22.3644 12 21.75L11.5699 22.3644C11.8281 22.5452 12.1719 22.5452 12.4301 22.3644L12 21.75C12.4301 22.3644 12.4303 22.3643 12.4305 22.3641L12.4312 22.3637L12.4329 22.3624L12.4385 22.3585L12.4575 22.345C12.4737 22.3334 12.4969 22.3167 12.5264 22.2952C12.5856 22.252 12.6706 22.189 12.7777 22.1071C12.9919 21.9434 13.2951 21.7038 13.6576 21.3957C14.3816 20.7803 15.3478 19.8867 16.316 18.7734C18.2339 16.5678 20.25 13.395 20.25 9.75C20.25 7.56196 19.3808 5.46354 17.8336 3.91637C16.2865 2.36919 14.188 1.5 12 1.5C9.81196 1.5 7.71354 2.36919 6.16637 3.91637C4.61919 5.46354 3.75 7.56196 3.75 9.75C3.75 13.395 5.76611 16.5678 7.68405 18.7734C8.65217 19.8867 9.61838 20.7803 10.3424 21.3957C10.7049 21.7038 11.0081 21.9434 11.2223 22.1071C11.3294 22.189 11.4144 22.252 11.4736 22.2952C11.5031 22.3167 11.5263 22.3334 11.5425 22.345L11.5561 22.3547L11.5615 22.3585L11.5671 22.3624L11.5688 22.3637L11.5695 22.3641ZM9.75 9.75C9.75 8.50736 10.7574 7.5 12 7.5C13.2426 7.5 14.25 8.50736 14.25 9.75C14.25 10.9926 13.2426 12 12 12C10.7574 12 9.75 10.9926 9.75 9.75ZM12 6C9.92893 6 8.25 7.67893 8.25 9.75C8.25 11.8211 9.92893 13.5 12 13.5C14.0711 13.5 15.75 11.8211 15.75 9.75C15.75 7.67893 14.0711 6 12 6Z" fill="black"/>
</g>
<defs>
<clipPath id="clip0_343_16856">
<rect width="24" height="24" fill="white"/>
</clipPath>
</defs>
</svg>
