<svg width="22" height="19" viewBox="0 0 22 19" fill="none" xmlns="http://www.w3.org/2000/svg">
<path fill-rule="evenodd" clip-rule="evenodd" d="M2.3247 2.00043C3.30722 1.09882 4.47396 0.549854 5.86996 0.338992C6.1115 0.302637 7.27825 0.29173 11.192 0.299001L11.2016 0.299015C16.1783 0.306273 16.2113 0.306321 16.5836 0.382618C17.4105 0.557124 18.1269 0.829789 18.8106 1.23333C19.2855 1.51691 20.092 2.21857 20.4236 2.64393C20.9107 3.2656 21.2751 4.02543 21.4552 4.79253C21.5248 5.07974 21.5289 5.42875 21.5289 9.59144C21.5289 13.845 21.5248 14.0995 21.4511 14.4085C20.9271 16.6444 19.003 18.3458 16.473 18.8148C16.1496 18.8766 15.7566 18.8802 11.0691 18.8802C6.38169 18.8802 5.98869 18.8766 5.66527 18.8148C3.12709 18.3458 1.21526 16.648 0.683064 14.3904C0.613469 14.1031 0.609375 13.7541 0.609375 9.59144C0.609375 5.33422 0.613469 5.08337 0.687158 4.77435C0.940976 3.70187 1.48955 2.77117 2.3247 2.00043ZM10.2789 3.4289C8.84198 3.67248 7.60564 4.60681 7.11438 5.82835C6.07045 8.42776 8.35482 11.0563 11.462 10.8236C14.3932 10.6055 16.1495 7.79154 14.8313 5.43208C14.2909 4.46866 13.3247 3.77427 12.113 3.48343C11.679 3.378 10.7456 3.35255 10.2789 3.4289ZM11.9083 4.77405C12.3873 4.91583 12.6452 5.06125 13.0177 5.38845C13.5827 5.89379 13.8283 6.42458 13.8242 7.13715C13.8242 7.6025 13.7177 7.95514 13.4557 8.35505C13.2633 8.64226 12.8048 9.05671 12.4896 9.22395C11.9533 9.50388 11.3147 9.62386 10.7374 9.55478C10.0865 9.4748 9.59116 9.25667 9.12446 8.84585C7.87993 7.74065 8.06825 5.9665 9.52975 5.0758C10.2175 4.65407 11.1263 4.53774 11.9083 4.77405ZM9.22678 12.0894C8.05185 12.2167 6.90967 12.6493 5.98036 13.311C5.59554 13.5873 5.48501 13.7145 5.43998 13.9217C5.34991 14.3544 5.83708 14.7616 6.31606 14.6452C6.47163 14.6089 6.53303 14.5725 7.06933 14.198C7.60971 13.82 8.42439 13.5 9.14081 13.391C9.63207 13.3146 12.506 13.3146 13.0013 13.391C13.4353 13.4564 13.906 13.5945 14.3236 13.7836C14.7166 13.9581 14.9254 14.0781 15.3143 14.358C15.6418 14.598 15.7524 14.6452 15.9898 14.6452C16.4688 14.6452 16.8127 14.1653 16.6244 13.7618C16.4401 13.3728 15.1506 12.6311 14.1517 12.3403C13.3288 12.0967 13.2306 12.0894 11.2123 12.0822C10.2011 12.0749 9.30457 12.0785 9.22678 12.0894Z" fill="#fff"/>
</svg>
