<svg width="18" height="20" viewBox="0 0 18 20" fill="none" xmlns="http://www.w3.org/2000/svg">
<g clip-path="url(#clip0_494_2853)">
<path fill-rule="evenodd" clip-rule="evenodd" d="M13.393 8.62436C13.3934 8.27919 13.393 6.5 11.6887 6.27016C11.3916 6.20544 11.1968 5.87812 11.2535 5.53906C11.3509 4.95646 11.5916 4.41753 11.9474 3.98526C12.3032 3.55299 12.7595 3.24522 13.2629 3.09791C13.7662 2.9506 14.296 2.96985 14.7901 3.15339C15.2843 3.33693 15.7225 3.67719 16.0535 4.13442C16.3845 4.59164 16.5947 5.14694 16.6594 5.73544C16.7242 6.32394 16.6409 6.92132 16.4193 7.4578C16.2691 7.82124 16.0597 8.14655 15.8037 8.41727C15.8949 8.46121 15.9849 8.50853 16.0737 8.55921C16.7205 8.9283 17.2827 9.46477 17.7156 10.1258C17.8966 10.4023 17.847 10.794 17.6048 11.0006L17.4352 11.0002C17.338 11 17.2407 11 16.9483 11H15.6339L15.0383 10.9998C14.6424 10.9995 14.249 10.9993 13.8813 11C13.6283 11.0005 13.4928 9.58034 13.455 8.91404C13.4153 8.82742 13.393 8.72887 13.393 8.62436ZM4.73033 8.62436C4.73003 8.27919 4.73033 6.5 6.43461 6.27016C6.73166 6.20544 6.9265 5.87812 6.86979 5.53906C6.77236 4.95646 6.53169 4.41753 6.17588 3.98526C5.82008 3.55299 5.36385 3.24522 4.8605 3.09791C4.35715 2.9506 3.82747 2.96985 3.33334 3.15339C2.83921 3.33693 2.40105 3.67719 2.07006 4.13442C1.73906 4.59164 1.52889 5.14694 1.46411 5.73544C1.39934 6.32394 1.48262 6.92132 1.70424 7.4578C1.85437 7.82121 2.06378 8.1465 2.31972 8.41721C2.22852 8.46116 2.13844 8.50851 2.04961 8.55921C1.40289 8.9283 0.840685 9.46477 0.407824 10.1258C0.226784 10.4023 0.276388 10.794 0.518618 11.0006L0.688162 11.0002C0.785414 11 0.882666 11 1.17507 11H2.48943L3.08497 10.9998C3.48084 10.9995 3.87422 10.9993 4.24192 11C4.49484 11.0005 4.63032 9.581 4.66818 8.9145C4.70796 8.82777 4.73043 8.72906 4.73033 8.62436ZM5.8853 10.9375C5.8853 8.86643 7.35652 7.1875 9.17138 7.1875C10.9862 7.1875 12.4575 8.86643 12.4575 10.9375C12.4575 12.1533 11.9505 13.2339 11.1646 13.9192C11.3785 14.0269 11.5863 14.1523 11.7861 14.2947C12.5703 14.8536 13.2011 15.6527 13.6068 16.6007C13.7395 16.9109 13.6268 17.2852 13.355 17.4366C13.0832 17.5881 5.12049 17.7468 4.98777 17.4366C4.71597 17.2852 4.60322 16.9109 4.73594 16.6007C5.14161 15.6527 5.77247 14.8536 6.55666 14.2947C6.75649 14.1523 6.96424 14.0269 7.17819 13.9192C6.3923 13.2339 5.8853 12.1533 5.8853 10.9375Z" fill="#fff"/>
</g>
<defs>
<clipPath id="clip0_494_2853">
<rect width="17.5258" height="20" fill="white" transform="translate(0.298828)"/>
</clipPath>
</defs>
</svg>
