<svg width="19" height="14" viewBox="0 0 19 14" fill="none" xmlns="http://www.w3.org/2000/svg">
<path fill-rule="evenodd" clip-rule="evenodd" d="M3.85024 1.33096C4.18865 1.22863 4.5514 1.21791 4.89613 1.30003C5.24085 1.38215 5.5533 1.55374 5.79698 1.79473C6.04065 2.03572 6.20548 2.33617 6.27221 2.66097C6.33693 2.97601 6.66425 3.18265 7.00331 3.12252C7.34236 3.06238 7.56476 2.75824 7.50004 2.4432C7.38882 1.90186 7.11411 1.40111 6.70799 0.999456C6.30187 0.597802 5.78111 0.311831 5.20657 0.174959C4.63203 0.0380874 4.02744 0.0559673 3.46343 0.226509C2.89942 0.397051 2.39929 0.713212 2.02148 1.13805C1.64366 1.56289 1.40378 2.07886 1.32984 2.62567C1.2559 3.17248 1.35097 3.72755 1.60393 4.22603C1.77531 4.56373 2.01435 4.86601 2.30653 5.11755C2.20249 5.15837 2.09972 5.20234 1.99839 5.24942C1.26021 5.59237 0.61849 6.09084 0.124411 6.70509C-0.0822336 6.962 -0.0256139 7.32591 0.250875 7.51792C0.527363 7.70993 0.919019 7.65732 1.12566 7.40041C1.50315 6.93112 1.99343 6.55028 2.5574 6.28827C3.12138 6.02625 3.74345 5.89031 4.37399 5.89129L4.39247 5.89107L4.43363 5.89129C4.77881 5.89096 5.05835 5.63069 5.058 5.30997C5.05765 4.98924 4.77754 4.7295 4.43236 4.72983C4.07649 4.73016 3.72786 4.63639 3.42721 4.45946C3.12657 4.28253 2.88632 4.02976 2.73454 3.73067C2.58276 3.43159 2.52572 3.09854 2.57009 2.77046C2.61445 2.44237 2.75838 2.13279 2.98507 1.87788C3.21176 1.62298 3.51183 1.43328 3.85024 1.33096ZM6.62514 7.45926C6.62514 6.17635 7.74443 5.13634 9.12514 5.13634C10.5059 5.13634 11.6251 6.17635 11.6251 7.45926C11.6251 8.74217 10.5059 9.78218 9.12514 9.78218C7.74443 9.78218 6.62514 8.74217 6.62514 7.45926ZM9.12514 3.97488C7.05407 3.97488 5.37514 5.53489 5.37514 7.45926C5.37514 8.58893 5.95372 9.59305 6.85056 10.2297C6.60641 10.3299 6.36933 10.4463 6.14128 10.5787C5.24639 11.098 4.52647 11.8404 4.06352 12.7214C3.91206 13.0096 4.04073 13.3573 4.35091 13.498C4.66108 13.6388 5.03531 13.5192 5.18676 13.231C5.54698 12.5455 6.10714 11.9679 6.80344 11.5638C7.49975 11.1597 8.30419 10.9455 9.12514 10.9455C9.94609 10.9455 10.7505 11.1597 11.4468 11.5638C12.1431 11.9679 12.7033 12.5455 13.0635 13.231C13.215 13.5192 13.5892 13.6388 13.8994 13.498C14.2096 13.3573 14.3382 13.0096 14.1868 12.7214C13.7238 11.8404 13.0039 11.098 12.109 10.5787C11.8809 10.4463 11.6439 10.3299 11.3997 10.2297C12.2966 9.59305 12.8751 8.58893 12.8751 7.45926C12.8751 5.53489 11.1962 3.97488 9.12514 3.97488ZM14.1047 1.30003C14.4493 1.21791 14.812 1.22863 15.1504 1.33096C15.4887 1.43328 15.7887 1.62298 16.0154 1.87788C16.242 2.13279 16.386 2.44237 16.4303 2.77046C16.4747 3.09854 16.4176 3.43159 16.2659 3.73067C16.1141 4.02976 15.8739 4.28253 15.5733 4.45946C15.2727 4.63639 14.9242 4.73016 14.5683 4.72983C14.2232 4.7295 13.9432 4.98924 13.9428 5.30997C13.9425 5.63069 14.222 5.89096 14.5671 5.89129L14.6083 5.89107L14.6267 5.89129C15.2572 5.89031 15.8791 6.02625 16.443 6.28827C17.0069 6.55028 17.4971 6.93112 17.8745 7.40041C18.0811 7.65732 18.4727 7.70993 18.7492 7.51792C19.0256 7.32591 19.0822 6.962 18.8756 6.70509C18.3816 6.09084 17.74 5.59237 17.0019 5.24942C16.9006 5.20234 16.7979 5.15837 16.6938 5.11754C16.986 4.866 17.225 4.56372 17.3963 4.22603C17.6492 3.72755 17.7443 3.17248 17.6703 2.62567C17.5964 2.07886 17.3566 1.56289 16.9788 1.13805C16.6011 0.713212 16.101 0.397051 15.5371 0.226509C14.9732 0.0559673 14.3687 0.0380874 13.7943 0.174959C13.2198 0.311831 12.6992 0.597802 12.2931 0.999456C11.887 1.40111 11.6124 1.90186 11.5012 2.4432C11.4365 2.75824 11.6588 3.06238 11.9978 3.12252C12.3368 3.18265 12.6641 2.97601 12.7288 2.66097C12.7955 2.33617 12.9603 2.03572 13.204 1.79473C13.4476 1.55374 13.76 1.38215 14.1047 1.30003Z" fill="#212121"/>
</svg>
