<svg width="20" height="13" viewBox="0 0 20 13" fill="none" xmlns="http://www.w3.org/2000/svg">
<path fill-rule="evenodd" clip-rule="evenodd" d="M6.69167 0.0839844C4.0105 0.0839844 1.83698 2.15107 1.83698 4.70095C1.83698 6.30416 2.6962 7.71652 4.0006 8.54424C3.69695 8.6509 3.39977 8.77579 3.11091 8.91851C2.00477 9.465 1.05318 10.2566 0.336494 11.2266C0.130952 11.5047 0.201438 11.8887 0.49393 12.0842C0.786421 12.2796 1.19016 12.2126 1.3957 11.9344C4.74979 10.6025 7.05128 10.6025 11.9877 11.9344C12.1933 12.2126 12.597 12.2796 12.8895 12.0842C13.182 11.8887 13.2525 11.5047 13.047 11.2266C12.3303 10.2566 11.3787 9.465 10.2725 8.91851C9.98366 8.77578 9.68645 8.65088 9.38277 8.54422C10.6871 7.71649 11.5464 6.30414 11.5464 4.70095C11.5464 2.15107 9.37284 0.0839844 6.69167 0.0839844ZM13.2863 0.0839844L13.2844 0.0839872C12.8424 0.0852668 12.4026 0.141635 11.9761 0.251652C11.631 0.340646 11.4272 0.678792 11.5208 1.00692C11.6143 1.33505 11.9699 1.52891 12.3149 1.43991C15.1065 2.3946 15.1065 6.77217 13.2863 8.08672C13.2861 8.08672 13.2858 8.08672 13.2856 8.08672C12.9281 8.08693 12.6384 8.36271 12.6387 8.70269C12.6389 9.04268 12.9289 9.31812 13.2864 9.31791C14.3251 9.3173 15.3486 9.55472 16.2704 10.0101C17.1922 10.4654 17.985 11.1253 18.5818 11.9339C18.7872 12.2122 19.1909 12.2794 19.4835 12.0841C19.7761 11.8888 19.8468 11.5048 19.6414 11.2266C18.9251 10.2561 17.9735 9.46406 16.8672 8.91751C16.5784 8.77486 16.2813 8.65003 15.9778 8.54344C16.2424 8.37579 16.491 8.18263 16.7191 7.96563C17.6296 7.09978 18.141 5.92544 18.141 4.70095C18.141 3.47645 17.6296 2.30211 16.7191 1.43626C15.8087 0.570413 14.5739 0.0839844 13.2863 0.0839844Z" fill="#fff"/>
</svg>
