<svg width="17" height="24" viewBox="0 0 17 24" fill="none" xmlns="http://www.w3.org/2000/svg">
<path fill-rule="evenodd" clip-rule="evenodd" d="M7.06788 0.101911C4.36594 0.65949 2.19017 2.79142 1.63082 5.42001C1.5929 5.59806 1.2042 7.92677 0.77284 10.5928C0.0144016 15.2269 -0.0187801 15.4658 0.00492113 15.9344C0.0333626 16.5107 0.118687 16.8574 0.350959 17.3354C0.806022 18.2912 1.55972 18.9612 2.58835 19.3267L3.00075 19.472L8.34775 19.486C13.5715 19.4954 13.7042 19.4954 14.0977 19.4017C15.1405 19.158 16.0791 18.4318 16.5721 17.49C16.8754 16.9137 16.9702 16.5575 16.9939 15.8875C17.0174 15.3119 17.0083 15.256 16.2752 10.7441L16.2545 10.6163C15.8373 8.03923 15.4581 5.76205 15.4154 5.55589C15.1453 4.20176 14.4864 2.99289 13.4767 1.99487C12.4812 1.00622 11.2962 0.378358 9.91203 0.101911C9.24365 -0.0339704 7.71729 -0.0339704 7.06788 0.101911ZM9.16307 1.57317C10.3292 1.65283 11.7512 2.35097 12.595 3.26466C13.1401 3.85035 13.5431 4.53444 13.7848 5.28412C13.8891 5.60274 14.1451 7.02715 14.7566 10.6397C15.2116 13.3479 15.5861 15.6486 15.5861 15.761C15.5861 16.0328 15.4676 16.4638 15.3112 16.7778C15.0125 17.3681 14.2967 17.8601 13.5952 17.9492C13.1117 18.0101 4.05309 18.0101 3.61699 17.9492C2.86803 17.8414 2.20439 17.3541 1.8631 16.6653C1.68771 16.3092 1.57868 15.7938 1.62134 15.5127C1.6323 15.4612 1.75731 14.6911 1.94416 13.54L1.94417 13.5399L1.94426 13.5394C2.08064 12.6992 2.24995 11.6561 2.43192 10.5413C3.26621 5.39658 3.29939 5.23258 3.68809 4.4829C4.54133 2.83359 6.25256 1.69968 8.08703 1.55443C8.33827 1.53569 8.59898 1.52632 8.66534 1.531C8.73171 1.54037 8.9545 1.55912 9.16307 1.57317ZM7.10106 22.0162C7.21009 21.6273 7.67937 21.1588 8.06807 21.0463C8.34775 20.9666 8.87865 20.9901 9.16307 21.0932C10.1443 21.4539 10.4145 22.8221 9.66079 23.5718C8.90235 24.3168 7.5182 24.0497 7.15321 23.0798C7.04418 22.794 7.02048 22.3067 7.10106 22.0162Z" fill="#212121"/>
</svg>
