<svg width="19" height="24" viewBox="0 0 19 24" fill="none" xmlns="http://www.w3.org/2000/svg">
<path fill-rule="evenodd" clip-rule="evenodd" d="M2.18281 5.60371C2.78478 3.09868 5.12632 1.06697 8.03412 0.535597C8.73301 0.406103 10.3757 0.406103 11.095 0.535597C12.5846 0.799049 13.8599 1.3974 14.9312 2.33958C16.0178 3.29068 16.7269 4.44273 17.0177 5.7332C17.0636 5.92967 17.4717 8.0998 17.9206 10.5557L17.943 10.6776C18.7319 14.9773 18.7417 15.0306 18.7165 15.5792C18.691 16.2177 18.5889 16.5571 18.2624 17.1063C17.7319 18.0038 16.7218 18.6959 15.5995 18.9281C15.1761 19.0174 15.0332 19.0174 9.4115 19.0085L3.65712 18.9951L3.21329 18.8567C2.10629 18.5084 1.29517 17.8699 0.805433 16.9589C0.555464 16.5035 0.463639 16.1731 0.43303 15.6238C0.407523 15.1773 0.443233 14.9496 1.25946 10.5334C1.72369 7.99264 2.142 5.77339 2.18281 5.60371ZM8.06983 21.4198C8.18717 21.0492 8.6922 20.6026 9.11052 20.4955C9.4115 20.4195 9.98286 20.4419 10.2889 20.5401C11.3449 20.8839 11.6357 22.1878 10.8246 22.9023C10.0084 23.6122 8.51876 23.3577 8.12595 22.4334C8.00862 22.161 7.98311 21.6966 8.06983 21.4198Z" fill="#fff"/>
</svg>
