<svg width="20" height="20" viewBox="0 0 20 20" fill="none" xmlns="http://www.w3.org/2000/svg">
<path opacity="0.8" fill-rule="evenodd" clip-rule="evenodd" d="M5.02935 0.045328C3.69472 0.272263 2.57926 0.863078 1.63992 1.83342C0.841487 2.66291 0.317025 3.66456 0.074364 4.8188C0.00391389 5.15138 0 5.42135 0 10.0031C0 14.4831 0.00391389 14.8587 0.0704501 15.1678C0.579256 17.5976 2.40704 19.4248 4.83366 19.9296C5.14286 19.9961 5.51859 20 10 20C14.4814 20 14.8571 19.9961 15.1663 19.9296C17.5851 19.4248 19.4247 17.5937 19.9256 15.1874C19.9961 14.8548 20 14.5809 20 10.0031C20 5.52308 19.9961 5.14746 19.9296 4.83836C19.7573 4.01279 19.409 3.19504 18.9432 2.52597C18.6262 2.06818 17.8552 1.31304 17.4012 1.00785C16.7476 0.57354 16.0626 0.280089 15.272 0.0922801C14.9161 0.0101656 14.8846 0.0101139 10.1264 0.00230326L10.1174 0.00228849C6.37573 -0.00553687 5.26027 0.00620117 5.02935 0.045328ZM15.1389 1.48128C16.0274 1.72778 16.6301 2.07601 17.2798 2.72551C17.9296 3.37502 18.2779 3.97757 18.5245 4.86575L18.6301 5.24919V10.0031V14.757L18.5245 15.1405C18.2779 16.0286 17.9296 16.6312 17.2798 17.2807C16.6301 17.9302 16.0274 18.2784 15.1389 18.5249L14.7554 18.6306H10H5.24462L4.86106 18.5249C3.9726 18.2784 3.36986 17.9302 2.72016 17.2807C2.07045 16.6312 1.72211 16.0286 1.47554 15.1405L1.36986 14.757V10.0031V5.24919L1.47554 4.86575C1.71429 4.00887 2.07045 3.38676 2.68102 2.76073C3.38552 2.04471 4.11742 1.6417 5.08806 1.43433C5.42466 1.3639 5.65166 1.35999 10.0978 1.36781L14.7554 1.37564L15.1389 1.48128ZM9.24451 3.37084C7.87073 3.63299 6.68874 4.63855 6.21907 5.95321C5.22103 8.75078 7.40498 11.5796 10.3756 11.3292C13.178 11.0945 14.857 8.06606 13.5968 5.52673C13.0801 4.48987 12.1564 3.74255 10.9979 3.42953C10.5831 3.31607 9.69069 3.28868 9.24451 3.37084ZM10.8022 4.81853C11.2602 4.97113 11.5067 5.12764 11.8629 5.47978C12.403 6.02364 12.6379 6.59489 12.6339 7.36178C12.6339 7.8626 12.5322 8.24213 12.2817 8.67253C12.0977 8.98163 11.6594 9.42767 11.358 9.60766C10.8453 9.90893 10.2347 10.0381 9.68287 9.96371C9.06056 9.87763 8.58698 9.64287 8.14079 9.20074C6.95097 8.01128 7.13101 6.10189 8.52827 5.14329C9.1858 4.68942 10.0547 4.56421 10.8022 4.81853ZM5.1349 14.0062C6.02336 13.2941 7.11533 12.8285 8.23862 12.6916C8.31299 12.6798 9.17013 12.6759 10.1369 12.6838C12.0664 12.6916 12.1603 12.6994 12.947 12.9616C13.902 13.2746 15.1349 14.0728 15.311 14.4914C15.4911 14.9257 15.1623 15.4422 14.7044 15.4422C14.4774 15.4422 14.3717 15.3913 14.0586 15.1331C13.6868 14.8318 13.4872 14.7027 13.1114 14.5149C12.7122 14.3114 12.2621 14.1628 11.8472 14.0923C11.3737 14.0102 8.6261 14.0102 8.15643 14.0923C7.4715 14.2097 6.69263 14.554 6.176 14.9609C5.66328 15.3639 5.60457 15.4031 5.45584 15.4422C4.99792 15.5674 4.53216 15.1292 4.61827 14.6636C4.66132 14.4406 4.767 14.3036 5.1349 14.0062Z" fill="#212121"/>
</svg>
