<svg width="21" height="20" viewBox="0 0 21 20" fill="none" xmlns="http://www.w3.org/2000/svg">
<path fill-rule="evenodd" clip-rule="evenodd" d="M5.20479 1.09754C5.41579 0.648177 5.86124 0.261335 6.36922 0.0894055C6.6701 -0.0121894 7.20933 -0.0317268 7.52193 0.0542381C8.08461 0.202723 8.61212 0.652085 8.83485 1.16006L8.90518 1.32808H9.91723C10.7298 1.32808 10.8874 1.32808 11.0244 1.38128C11.0574 1.39408 11.0891 1.40996 11.1285 1.42967L11.1286 1.42968C11.3396 1.53518 11.5545 1.754 11.5896 1.90248C11.613 1.98828 11.6248 1.98845 12.4523 2.0001L12.4571 2.00017C13.18 2.01189 13.3246 2.02362 13.4457 2.08223C13.645 2.17992 13.8325 2.37138 13.9263 2.57848C14.0082 2.74994 14.0084 2.80482 14.02 5.65746V5.65751L14.0201 5.68103L14.0279 8.60384L14.2819 8.88127C14.4499 9.06492 14.5945 9.27984 14.7039 9.50256L14.8719 9.84642L14.9892 9.60416C15.2392 9.08055 15.8019 8.39674 16.2747 8.04897C16.5756 7.82625 16.896 7.65823 17.0132 7.65823C17.1578 7.65823 17.3493 7.84969 17.3493 7.99818C17.3493 8.15838 17.2633 8.25998 16.9351 8.48271C16.2161 8.96724 15.7042 9.60416 15.462 10.3231C15.3526 10.6436 15.29 10.9562 15.3408 10.9366C15.3538 10.9314 15.4077 10.9023 15.4767 10.8651C15.512 10.8461 15.5512 10.8249 15.5909 10.8038L15.8058 10.6865H16.685C17.5368 10.6865 17.572 10.6904 17.8768 10.792C18.2949 10.9366 18.6309 11.1398 18.9787 11.4641C19.4164 11.8744 19.7211 12.3629 19.897 12.9412C19.9751 13.203 19.9829 13.3241 19.9986 14.5198C20.0103 15.567 19.9986 15.8835 19.9517 16.1688C19.6156 18.1069 18.2011 19.6113 16.3919 19.9473C16.1067 20.002 15.8605 20.0098 14.8368 19.9903C14.1647 19.9786 13.5668 19.9707 13.5004 19.9707L13.213 19.9718L13.2119 19.9718L13.2089 19.9718C12.3878 19.9748 9.93556 19.9839 7.09601 19.9903C2.64928 20.002 0.765869 19.9942 0.652552 19.9629C0.445455 19.9082 0.101595 19.5644 0.0429825 19.3573C0.0117225 19.2518 0 16.7705 0 10.9796V2.75432L0.0937799 2.55894C0.20319 2.32449 0.351675 2.17992 0.586124 2.07441C0.746332 2.00017 0.840112 1.99236 1.563 1.99236H2.36404L2.44219 1.85169C2.54378 1.66022 2.8134 1.42968 3.00096 1.37497C3.10255 1.34371 3.49721 1.32808 4.12632 1.32808H5.09928L5.20479 1.09754ZM8.26045 1.65631C8.14322 1.24212 7.83844 0.921702 7.43206 0.773217C7.24059 0.702882 6.81858 0.687252 6.64274 0.73805C6.31061 0.839645 5.95502 1.14834 5.82608 1.45312C5.65415 1.85169 5.60726 1.93374 5.50957 1.98063C5.43924 2.0158 5.11882 2.03143 4.31388 2.03143H3.21587L3.12209 2.13303C3.02831 2.23071 3.02831 2.24244 3.02831 3.01221C3.02831 3.76636 3.03222 3.7898 3.11818 3.87577L3.20805 3.96564L6.92799 3.97736C8.97161 3.98127 10.687 3.97736 10.7339 3.96564C10.7808 3.95392 10.8589 3.90703 10.9019 3.86014C10.9762 3.78199 10.9801 3.72338 10.9801 3.0044C10.9801 2.30496 10.9722 2.22681 10.9058 2.14475L10.8316 2.05097L9.65933 2.03143L9.50878 2.02884C8.68841 2.01486 8.45418 2.01087 8.3542 1.893C8.31425 1.8459 8.29574 1.78061 8.26982 1.68923L8.26045 1.65631ZM2.30542 3.3209V3.00831V2.69571H1.60207C0.902632 2.69571 0.894817 2.69571 0.801037 2.79339L0.703349 2.88717V11.0109V19.1345L0.793222 19.2166L0.883094 19.3026H6.46691H12.0468L11.8749 19.1814C11.7811 19.115 11.6131 18.9743 11.5076 18.8688L11.3122 18.6774L6.5177 18.6695L6.50764 18.6695H6.50755H6.50747H6.50738H6.50729H6.5072H6.50712H6.50703H6.50694H6.50685H6.50676C1.74662 18.6578 1.72313 18.6578 1.6177 18.5758C1.55909 18.5328 1.47313 18.4468 1.43014 18.3882L1.34809 18.2827V11.0069V3.73119L1.43796 3.60224C1.57081 3.41859 1.78573 3.3209 2.07097 3.3209H2.30542ZM13.3246 5.56381C13.3246 2.89108 13.3246 2.86373 13.1722 2.7465C13.1292 2.71134 12.8947 2.69961 12.3985 2.69571H11.6834V3.00831V3.3209H11.914C12.1797 3.3209 12.3282 3.36779 12.4571 3.48893L12.476 3.50639L12.476 3.5064L12.476 3.50641C12.5053 3.53343 12.5304 3.55658 12.5519 3.58266C12.6808 3.73857 12.683 3.99916 12.6985 5.81752V5.81755L12.6994 5.91548L12.7189 8.01771L12.9924 8.09196C13.1448 8.13103 13.2777 8.16229 13.2972 8.16229C13.3128 8.1662 13.3246 6.99395 13.3246 5.56381ZM2.66882 4.43454C2.58286 4.3603 2.48126 4.23917 2.44609 4.16102C2.38357 4.03598 2.36794 4.02425 2.20774 4.02425H2.0319V10.9991V17.974H6.38485H10.7378L10.5502 17.6145C10.3197 17.1769 10.1439 16.6689 10.0618 16.2C9.97975 15.7116 9.97584 13.5703 10.0618 13.1678C10.2337 12.3433 10.7573 11.5853 11.4646 11.1281C11.5746 11.0581 11.6732 10.9909 11.7071 10.9678L11.7072 10.9678L11.7072 10.9678L11.7186 10.9601C11.7264 10.9483 11.6756 10.8741 11.5975 10.792C11.3982 10.5888 11.1911 10.1864 11.0934 9.82298C10.9957 9.45177 10.9683 8.59212 11.0504 8.35376C11.1168 8.17011 11.3435 8.05288 11.7108 8.01771L11.9765 7.99036L11.9882 6.00535L11.996 4.02425H11.8045C11.6404 4.02425 11.6053 4.03598 11.5857 4.10631C11.5427 4.23526 11.2966 4.48925 11.1207 4.58303L10.9605 4.66899L7.07648 4.68071L6.538 4.68222C3.33386 4.69136 2.99845 4.69231 2.78298 4.53203C2.75779 4.51329 2.73424 4.49234 2.70793 4.46895C2.69564 4.45802 2.68276 4.44656 2.66882 4.43454ZM14.024 9.72529C13.7896 9.28765 13.391 8.95551 12.9143 8.79921C12.6486 8.71325 12.4102 8.6859 12.0077 8.70543L11.7264 8.71716L11.699 8.85783C11.6639 9.04539 11.7459 9.60025 11.8514 9.87768C11.9061 10.0301 11.9999 10.1668 12.1523 10.3192C12.4571 10.6279 12.5978 10.667 13.3793 10.667C13.727 10.667 14.0748 10.6865 14.1569 10.71C14.2428 10.7334 14.3171 10.7451 14.3249 10.7334C14.364 10.6943 14.1373 9.9402 14.024 9.72529ZM14.6414 12.3668C14.6219 11.9174 14.4382 11.6126 14.0787 11.4329C13.9146 11.3508 12.7814 11.3508 12.4884 11.429C11.6639 11.6556 10.9605 12.4215 10.7652 13.3006C10.7104 13.5507 10.7026 13.7774 10.7183 14.8363C10.7339 15.9265 10.7456 16.114 10.812 16.3524C11.1676 17.6028 11.9022 18.5054 12.9455 18.99C13.5473 19.2674 13.6645 19.283 15.0048 19.283C16.3451 19.283 16.4623 19.2674 17.0679 18.9861C18.1112 18.5054 18.8419 17.6028 19.1975 16.3524C19.264 16.114 19.2757 15.9265 19.2913 14.8363C19.3108 13.4062 19.2913 13.2303 19.0217 12.6872C18.8107 12.2691 18.3496 11.7924 17.9745 11.6087C17.5603 11.4094 17.3571 11.3703 16.6733 11.3703C16.138 11.3703 16.0364 11.3821 15.9074 11.4485C15.5518 11.6282 15.3877 11.9018 15.3682 12.3668C15.3486 12.777 15.333 12.8396 15.2314 12.9333C15.1181 13.0388 14.8915 13.0388 14.7782 12.9333C14.6766 12.8396 14.6609 12.777 14.6414 12.3668ZM3.86552 3.31692C3.63497 3.22314 3.58808 2.8871 3.78346 2.73471C3.86161 2.67219 3.93976 2.65656 4.17811 2.65656C4.35004 2.66046 4.50244 2.68 4.5376 2.70735C4.70953 2.84021 4.72516 3.12155 4.56886 3.26613C4.46727 3.356 4.03745 3.39117 3.86552 3.31692ZM5.46552 2.7078C5.29359 2.84066 5.27796 3.122 5.43426 3.26657C5.51241 3.33691 5.61791 3.34082 7.84127 3.34082H10.1662L10.26 3.23141C10.3968 3.0712 10.3733 2.84066 10.2014 2.7078C10.1115 2.63747 5.55539 2.63747 5.46552 2.7078ZM2.79002 5.92331C2.85254 5.84125 2.95805 5.75138 3.02447 5.72012C3.11044 5.68495 3.34489 5.66932 3.85286 5.66541C4.52495 5.66541 4.56793 5.66932 4.69297 5.75528C4.76331 5.80217 4.8649 5.90377 4.91179 5.9741C4.99776 6.09914 5.00167 6.14213 5.00167 6.83766C5.00167 7.53319 4.99776 7.57618 4.9157 7.69731C4.72033 7.98256 4.69297 7.99037 3.83723 7.99037C3.09481 7.99037 3.06355 7.98646 2.93851 7.9005C2.86817 7.8497 2.77439 7.73638 2.73141 7.65042C2.65717 7.50975 2.65326 7.43551 2.66498 6.78295L2.67671 6.06788L2.79002 5.92331ZM4.29832 7.30656V6.83766V6.36876H3.82942H3.36052V6.83766V7.30656H3.82942H4.29832ZM5.8652 6.68547C5.72844 6.74018 5.66983 6.83786 5.66592 7.00589C5.66592 7.11139 5.69327 7.18172 5.76361 7.24815L5.85739 7.34584H8.33474H10.8121L10.9176 7.24424C11.0505 7.10748 11.0544 6.91992 10.9254 6.77144L10.8316 6.66203L8.39336 6.65421C6.88506 6.65031 5.92382 6.66203 5.8652 6.68547ZM2.75901 8.96307C2.86842 8.81458 3.01299 8.71299 3.16929 8.67391C3.24354 8.65438 3.57567 8.64265 3.90781 8.64656C4.46267 8.65438 4.52519 8.66219 4.67368 8.74816C4.76746 8.79895 4.87296 8.90446 4.91985 8.99042C5.00191 9.135 5.00582 9.18189 4.99409 9.88133C4.98237 10.7136 4.96674 10.7566 4.66586 10.9285C4.52519 11.0106 4.46267 11.0184 3.85311 11.0184C3.0677 11.0184 2.92312 10.9754 2.75119 10.6863C2.6535 10.5183 2.6535 10.5065 2.66523 9.79146C2.67695 9.135 2.68476 9.06076 2.75901 8.96307ZM4.29856 10.3151V9.82662V9.33819H3.82966H3.36076V9.82662V10.3151H3.82966H4.29856ZM5.84176 9.69807C5.72063 9.7645 5.66592 9.85047 5.66592 9.98723C5.66592 10.167 5.70109 10.2334 5.82613 10.2959C5.99024 10.3819 9.67892 10.3819 9.84304 10.2959C9.96808 10.2334 10.0032 10.167 10.0032 10.0029C10.0032 9.83874 9.96808 9.77232 9.84304 9.7098C9.75316 9.659 9.42493 9.65118 7.82677 9.65118C6.52166 9.65509 5.89646 9.66681 5.84176 9.69807ZM2.71155 12.0619C2.77797 11.9056 2.96163 11.7297 3.11011 11.6828C3.17263 11.6633 3.52431 11.6516 3.89161 11.6555C4.54025 11.6633 4.5637 11.6672 4.71609 11.7688C4.97399 11.9368 5.00134 12.0423 5.00134 12.8356C5.00134 13.6288 4.97399 13.7343 4.71609 13.9023C4.5637 14.0039 4.53244 14.0078 3.93069 14.0195C3.58683 14.0273 3.24687 14.0234 3.17654 14.0078C3.01633 13.9805 2.77797 13.7773 2.71155 13.6092C2.6334 13.4295 2.6373 12.2377 2.71155 12.0619ZM4.29799 13.324V12.8356V12.3471H3.82909H3.36019V12.8356V13.324H3.82909H4.29799ZM5.76327 12.7577C5.65386 12.8632 5.63042 13.1015 5.72029 13.2148C5.82189 13.3516 5.96256 13.3633 7.50211 13.3633C9.04166 13.3633 9.18233 13.3516 9.28393 13.2148C9.3738 13.1015 9.35036 12.8632 9.24095 12.7577L9.14717 12.66H7.50211H5.85705L5.76327 12.7577ZM2.74705 15.0045C2.80957 14.8873 2.89163 14.8052 3.00885 14.7427C3.16515 14.6606 3.22377 14.6528 3.82552 14.6528C4.42337 14.6528 4.4898 14.6606 4.65 14.7388C4.96651 14.9029 4.98214 14.9459 4.99386 15.7899C5.00559 16.4815 5.00168 16.5362 4.92353 16.6769C4.87664 16.7551 4.77895 16.8684 4.7008 16.9192C4.56795 17.013 4.52106 17.0169 3.95056 17.0286C3.27066 17.0442 3.07919 17.013 2.88772 16.8527C2.68453 16.6808 2.65718 16.5636 2.65718 15.8329C2.65718 15.2194 2.66499 15.1608 2.74705 15.0045ZM4.29833 16.333V15.8446V15.3562H3.82943H3.36053V15.8446V16.333H3.82943H4.29833ZM5.76377 15.7664C5.62701 15.8993 5.63092 16.1298 5.76768 16.2588L5.86927 16.3525H7.50261H9.13594L9.23754 16.2588C9.38211 16.122 9.38211 15.8641 9.23754 15.7508C9.13594 15.6726 9.09296 15.6687 7.49479 15.6687H5.85755L5.76377 15.7664ZM11.3318 13.8944C11.3318 13.152 11.7148 12.4604 12.3204 12.1126C12.6956 11.8977 13.0121 11.9993 13.0121 12.3392C13.0121 12.5073 12.9495 12.5815 12.6526 12.7495C12.3048 12.9488 12.0899 13.3396 12.0352 13.8632C12 14.2188 11.9062 14.3399 11.6757 14.3399C11.4295 14.3399 11.3318 14.2109 11.3318 13.8944Z" fill="black"/>
</svg>
