<svg width="65" height="65" viewBox="0 0 65 65" fill="none" xmlns="http://www.w3.org/2000/svg">
<circle cx="32.5" cy="32.5" r="32.5" fill="#34b883"/>
<path d="M19.1128 17.093L46.839 32.3422C46.9567 32.407 47.0549 32.5023 47.1233 32.618C47.1916 32.7337 47.2277 32.8656 47.2277 33C47.2277 33.1344 47.1916 33.2663 47.1233 33.382C47.0549 33.4977 46.9567 33.593 46.839 33.6578L19.1128 48.907C18.9985 48.9699 18.8698 49.0019 18.7393 48.9999C18.6088 48.9979 18.4811 48.9619 18.3688 48.8955C18.2565 48.8291 18.1634 48.7346 18.0987 48.6213C18.034 48.5079 18 48.3797 18 48.2492V17.7508C18 17.6203 18.034 17.4921 18.0987 17.3787C18.1634 17.2654 18.2565 17.1709 18.3688 17.1045C18.4811 17.0381 18.6088 17.0021 18.7393 17.0001C18.8698 16.9981 18.9985 17.0301 19.1128 17.093V17.093ZM21.0036 34.5018V44.4392L41.8035 33L21.0036 21.5608V31.4982H28.5126V34.5018H21.0036Z" fill="white"/>
</svg>
