<svg width="18" height="18" viewBox="0 0 18 18" fill="none" xmlns="http://www.w3.org/2000/svg">
<g clip-path="url(#clip0_1314_11236)">
<path fill-rule="evenodd" clip-rule="evenodd" d="M17.448 0.00374756C17.5605 0.000231934 17.652 0.0248413 17.7398 0.0775757C17.8102 0.123279 17.898 0.218201 17.9332 0.288513C17.9719 0.362341 18 0.464294 18 0.517029C18 0.573279 16.8996 4.28578 15.5531 8.77172C14.2066 13.2577 13.0641 17.0088 13.0148 17.1037C12.9656 17.1987 12.8531 17.3569 12.7652 17.4518C12.6773 17.5467 12.5332 17.6698 12.4453 17.7295C12.3574 17.7893 12.1852 17.8737 12.0586 17.9194C11.8934 17.9791 11.7527 18.0002 11.5488 18.0002C11.3449 18.0002 11.2043 17.9791 11.0391 17.9194C10.9125 17.8737 10.7332 17.7823 10.6348 17.7155C10.5398 17.6487 10.3992 17.5327 10.3254 17.4553C10.2516 17.378 10.1391 17.2057 10.0723 17.0686C9.99492 16.9069 9.61875 15.6518 7.99805 9.98812L4.58789 9.01781C2.38711 8.38851 1.08984 8.00531 0.931641 7.92797C0.780469 7.85765 0.611719 7.73812 0.492188 7.62211C0.379687 7.50961 0.253125 7.33734 0.189844 7.20375C0.126563 7.0807 0.0597656 6.89437 0.0386719 6.79242C0.0175781 6.69398 0 6.53929 0 6.4514C0 6.36351 0.0175781 6.20883 0.0386719 6.10687C0.0597656 6.00844 0.119531 5.83617 0.16875 5.7307C0.221484 5.62523 0.351563 5.44242 0.460547 5.3264C0.580078 5.19633 0.741797 5.07328 0.882422 4.99945C1.03711 4.92211 3.65977 4.12054 9.14062 2.47875C13.5598 1.15336 17.1984 0.0564819 17.2266 0.0389038C17.2547 0.0178101 17.3531 0.00374756 17.4445 0.00374756H17.448ZM1.3043 5.96976C1.25508 6.00492 1.18125 6.10336 1.13555 6.19125C1.07578 6.30375 1.0582 6.39164 1.06523 6.50765C1.07227 6.61312 1.10742 6.70804 1.1707 6.79594C1.22695 6.86625 1.31133 6.94711 1.36406 6.97523C1.42031 6.99984 2.99531 7.46039 4.87266 7.99476L8.28281 8.96859C13.9219 3.32953 15.5496 1.68422 15.5391 1.67719C15.5285 1.67015 12.3398 2.61937 8.45508 3.78304C4.57031 4.95023 1.35352 5.93461 1.3043 5.96976ZM9.03516 9.72093C10.5891 15.1561 11.032 16.6502 11.0707 16.6994C11.1059 16.7487 11.1973 16.8225 11.2746 16.8647C11.3484 16.9104 11.468 16.9455 11.5348 16.9455C11.6016 16.9455 11.7281 16.9104 11.8125 16.8682C11.9004 16.8225 11.9988 16.7487 12.034 16.6994C12.0691 16.6502 13.0465 13.4475 14.2066 9.58031C15.3668 5.71312 16.3195 2.52797 16.3266 2.50687C16.3301 2.48226 16.3266 2.46117 16.316 2.46117C16.3055 2.46117 14.6637 4.09594 12.6668 6.09281L9.03516 9.72093Z" fill="black"/>
</g>
<defs>
<clipPath id="clip0_1314_11236">
<rect width="18" height="18" fill="white"/>
</clipPath>
</defs>
</svg>
