<svg width="14" height="18" viewBox="0 0 14 18" fill="none" xmlns="http://www.w3.org/2000/svg">
<path d="M1.09196 0.0809536C0.972287 0.126711 0.810379 0.204145 0.732944 0.256941C0.391529 0.482206 0.109949 0.890497 0.0325141 1.27415C0.00435606 1.40086 -0.00268344 3.78725 0.000836308 9.27102L0.0113956 17.0849L0.109949 17.2785C0.247219 17.546 0.490082 17.7818 0.747023 17.9014C0.940609 17.9894 0.996925 18 1.3489 18C1.7044 18 1.75015 17.993 1.92966 17.9014C2.08453 17.8205 2.55265 17.3735 4.1999 15.7298C5.34382 14.5929 6.33287 13.632 6.39974 13.5968C6.56517 13.5088 6.93826 13.5088 7.10369 13.5968C7.17057 13.632 8.16314 14.5929 9.30353 15.7298C10.9508 17.37 11.4189 17.8205 11.5738 17.8979C11.7533 17.993 11.799 18 12.1545 18C12.4995 18 12.5628 17.9894 12.7423 17.905C13.0098 17.7818 13.2738 17.5284 13.3935 17.282L13.492 17.0849L13.5026 9.27102C13.5061 3.78725 13.4991 1.40086 13.4709 1.27415C13.3759 0.806023 13.0239 0.369574 12.5628 0.14431L12.2953 0.0140781L6.80451 0.00704002L1.3137 0L1.09196 0.0809536ZM12.0841 1.12984C12.2214 1.20375 12.334 1.32695 12.3798 1.45014C12.408 1.52053 12.4185 3.85765 12.4185 9.17247C12.4185 16.219 12.415 16.8033 12.3587 16.8631C12.3235 16.9018 12.2531 16.9265 12.1756 16.9265C12.0595 16.9265 11.9398 16.8138 9.93709 14.8217C7.61053 12.5022 7.71965 12.5937 7.14945 12.474C6.72708 12.3825 6.32935 12.4318 5.89642 12.6183C5.69579 12.7063 5.51628 12.8788 3.56634 14.8217C1.60584 16.7716 1.44393 16.9265 1.3313 16.9265C1.26795 16.9265 1.18347 16.9018 1.14827 16.8666C1.08844 16.8138 1.08492 16.5252 1.08492 9.14783V1.48533L1.16587 1.36918C1.26443 1.22135 1.39818 1.1228 1.54601 1.0876C1.61288 1.07352 3.98519 1.06296 6.82211 1.06296C11.5491 1.07 11.9891 1.07352 12.0841 1.12984Z" fill="black"/>
</svg>
