<svg width="24" height="24" viewBox="0 0 24 24" fill="none" xmlns="http://www.w3.org/2000/svg">
<g clip-path="url(#clip0_343_16894)">
<path fill-rule="evenodd" clip-rule="evenodd" d="M4.5 3C4.10217 3 3.72064 3.15804 3.43934 3.43934C3.15804 3.72064 3 4.10217 3 4.5V19.5C3 19.8978 3.15804 20.2794 3.43934 20.5607C3.72065 20.842 4.10218 21 4.5 21H9.75C10.1642 21 10.5 20.6642 10.5 20.25C10.5 19.8358 10.1642 19.5 9.75 19.5H4.5L4.5 4.5L9.75 4.5C10.1642 4.5 10.5 4.16421 10.5 3.75C10.5 3.33579 10.1642 3 9.75 3H4.5ZM15.7822 7.53217C16.0751 7.23928 16.5499 7.23928 16.8428 7.53217L20.7803 11.4697C20.8522 11.5416 20.9065 11.6245 20.9431 11.7129C20.9798 11.8013 21 11.8983 21 12C21 12.1919 20.9268 12.3839 20.7803 12.5303L16.8428 16.4678C16.5499 16.7607 16.0751 16.7607 15.7822 16.4678C15.4893 16.1749 15.4893 15.7001 15.7822 15.4072L18.4393 12.75H9.75C9.33579 12.75 9 12.4142 9 12C9 11.5858 9.33579 11.25 9.75 11.25H18.4393L15.7822 8.59283C15.4893 8.29994 15.4893 7.82506 15.7822 7.53217Z" fill="black"/>
</g>
<defs>
<clipPath id="clip0_343_16894">
<rect width="24" height="24" fill="white"/>
</clipPath>
</defs>
</svg>
