<svg width="21" height="24" viewBox="0 0 21 24" fill="none" xmlns="http://www.w3.org/2000/svg">
<path fill-rule="evenodd" clip-rule="evenodd" d="M7.71429 0C7.2409 0 6.85714 0.383756 6.85714 0.857143C6.85714 1.33053 7.2409 1.71429 7.71429 1.71429H12.8571C13.3305 1.71429 13.7143 1.33053 13.7143 0.857143C13.7143 0.383756 13.3305 0 12.8571 0H7.71429ZM10.2857 5.14286C5.55184 5.14286 1.71429 8.98042 1.71429 13.7143C1.71429 18.4482 5.55184 22.2857 10.2857 22.2857C15.0196 22.2857 18.8571 18.4482 18.8571 13.7143C18.8571 8.98042 15.0196 5.14286 10.2857 5.14286ZM0 13.7143C0 8.03364 4.60507 3.42857 10.2857 3.42857C15.9664 3.42857 20.5714 8.03364 20.5714 13.7143C20.5714 19.3949 15.9664 24 10.2857 24C4.60507 24 0 19.3949 0 13.7143ZM15.1347 8.86534C15.4694 9.20008 15.4694 9.74279 15.1347 10.0775L10.8918 14.3204C10.5571 14.6551 10.0144 14.6551 9.67962 14.3204C9.34489 13.9856 9.34489 13.4429 9.67962 13.1082L13.9225 8.86534C14.2572 8.53061 14.7999 8.53061 15.1347 8.86534Z" fill="#FC3955"/>
</svg>
