<svg width="28" height="28" viewBox="0 0 28 28" fill="none" xmlns="http://www.w3.org/2000/svg">
<path d="M10.927 12.4623C12.0217 14.3856 13.6144 15.9783 15.5377 17.073L16.569 15.6287C16.7349 15.3964 16.9801 15.233 17.2583 15.1694C17.5365 15.1058 17.8283 15.1463 18.0787 15.2833C19.7287 16.1851 21.5509 16.7274 23.4255 16.8747C23.7181 16.8979 23.9912 17.0305 24.1903 17.246C24.3895 17.4616 24.5 17.7443 24.5 18.0378V23.2435C24.5001 23.5324 24.393 23.811 24.1994 24.0254C24.0059 24.2399 23.7397 24.3749 23.4523 24.4043C22.834 24.4685 22.211 24.5 21.5833 24.5C11.5967 24.5 3.5 16.4033 3.5 6.41667C3.5 5.789 3.5315 5.166 3.59567 4.54767C3.62513 4.26031 3.76015 3.99411 3.97459 3.80057C4.18903 3.60704 4.46764 3.49994 4.7565 3.5H9.96217C10.2557 3.49996 10.5384 3.61054 10.754 3.80969C10.9695 4.00884 11.1021 4.28193 11.1253 4.5745C11.2726 6.44909 11.8149 8.27129 12.7167 9.92133C12.8537 10.1717 12.8942 10.4635 12.8306 10.7417C12.767 11.0199 12.6036 11.2651 12.3713 11.431L10.927 12.4623ZM7.98467 11.6958L10.2013 10.1127C9.57225 8.75478 9.14124 7.31365 8.9215 5.83333H5.845C5.838 6.027 5.8345 6.22183 5.8345 6.41667C5.83333 15.1153 12.8847 22.1667 21.5833 22.1667C21.7782 22.1667 21.973 22.1632 22.1667 22.155V19.0785C20.6864 18.8588 19.2452 18.4278 17.8873 17.7987L16.3042 20.0153C15.6668 19.7677 15.0477 19.4753 14.4515 19.1403L14.3838 19.1018C12.0955 17.7995 10.2005 15.9045 8.89817 13.6162L8.85967 13.5485C8.52472 12.9523 8.23233 12.3332 7.98467 11.6958Z" fill="white"/>
</svg>
