<svg width="18" height="21" viewBox="0 0 18 21" fill="none" xmlns="http://www.w3.org/2000/svg">
<path fill-rule="evenodd" clip-rule="evenodd" d="M6.87868 2.87868C7.44129 2.31607 8.20435 2 9 2C9.79565 2 10.5587 2.31607 11.1213 2.87868C11.2202 2.97758 11.3115 3.08267 11.3948 3.19305C11.398 3.19746 11.4013 3.20184 11.4046 3.20617C11.7889 3.72126 12 4.34975 12 5H6C6 4.34975 6.21111 3.72126 6.59537 3.20617C6.5987 3.20183 6.60198 3.19746 6.60521 3.19305C6.6885 3.08268 6.77978 2.97758 6.87868 2.87868ZM5.64589 2C5.70142 1.93792 5.75881 1.87723 5.81802 1.81802C6.66193 0.974106 7.80653 0.5 9 0.5C10.1935 0.5 11.3381 0.974106 12.182 1.81802C12.2412 1.87723 12.2986 1.93792 12.3541 2H15.75C16.1478 2 16.5294 2.15804 16.8107 2.43934C17.092 2.72065 17.25 3.10218 17.25 3.5V19.25C17.25 19.6478 17.092 20.0294 16.8107 20.3107C16.5294 20.592 16.1478 20.75 15.75 20.75H2.25C1.85218 20.75 1.47065 20.592 1.18934 20.3107C0.908035 20.0294 0.75 19.6478 0.75 19.25V3.5C0.75 3.10217 0.908036 2.72064 1.18934 2.43934C1.47064 2.15804 1.85217 2 2.25 2H5.64589ZM4.75736 3.5H2.25L2.25 19.25H15.75L15.75 3.5H13.2426C13.4114 3.97731 13.5 4.48409 13.5 5V5.75C13.5 6.16421 13.1642 6.5 12.75 6.5H5.25C4.83579 6.5 4.5 6.16421 4.5 5.75V5C4.5 4.48409 4.58859 3.97731 4.75736 3.5ZM6 9.5C5.58579 9.5 5.25 9.83579 5.25 10.25C5.25 10.6642 5.58579 11 6 11H12C12.4142 11 12.75 10.6642 12.75 10.25C12.75 9.83579 12.4142 9.5 12 9.5H6ZM6 12.5C5.58579 12.5 5.25 12.8358 5.25 13.25C5.25 13.6642 5.58579 14 6 14H12C12.4142 14 12.75 13.6642 12.75 13.25C12.75 12.8358 12.4142 12.5 12 12.5H6Z" fill="#77838F"/>
</svg>
