<svg width="20" height="19" viewBox="0 0 20 19" fill="none" xmlns="http://www.w3.org/2000/svg">
<g clip-path="url(#clip0_1044_3698)">
<g clip-path="url(#clip1_1044_3698)">
<path fill-rule="evenodd" clip-rule="evenodd" d="M4.72075 7.89062C4.72075 6.18199 6.10587 4.79688 7.8145 4.79688C9.52313 4.79688 10.9082 6.18199 10.9082 7.89062C10.9082 9.58778 9.54167 10.9658 7.84888 10.9842L7.8145 10.9841L7.78012 10.9842C6.08733 10.9658 4.72075 9.58778 4.72075 7.89062ZM12.0332 7.89062C12.0332 9.35544 11.2867 10.6459 10.1533 11.4022C10.4171 11.4997 10.6753 11.6138 10.9262 11.7441C11.8875 12.2435 12.7144 12.9669 13.3372 13.8531C13.5158 14.1073 13.4546 14.4581 13.2004 14.6368C12.9462 14.8154 12.5954 14.7541 12.4168 14.5C11.8978 13.7614 11.2087 13.1586 10.4076 12.7425C9.61742 12.332 8.74121 12.115 7.85111 12.1092L7.8145 12.1094L7.77789 12.1092C6.88779 12.115 6.01158 12.332 5.22138 12.7425C4.42035 13.1586 3.73123 13.7614 3.21223 14.5C3.03361 14.7541 2.68276 14.8154 2.42859 14.6368C2.17441 14.4581 2.11316 14.1073 2.29177 13.8531C2.91457 12.9669 3.74152 12.2435 4.70276 11.7441C4.9537 11.6138 5.21187 11.4997 5.47567 11.4022C4.3423 10.6459 3.59575 9.35544 3.59575 7.89062C3.59575 5.56067 5.48455 3.67188 7.8145 3.67188C10.1445 3.67188 12.0332 5.56067 12.0332 7.89062ZM13.545 3.67188L13.5432 3.67188C13.1592 3.67305 12.777 3.72455 12.4063 3.82508C12.1065 3.9064 11.9293 4.21538 12.0107 4.51521C12.092 4.81504 12.401 4.99217 12.7008 4.91086C12.9763 4.83614 13.2604 4.79782 13.5458 4.79688C14.366 4.7971 15.1526 5.12302 15.7326 5.70301C16.3128 6.2832 16.6387 7.07011 16.6387 7.89062C16.6387 8.71114 16.3128 9.49805 15.7326 10.0782C15.1524 10.6584 14.3655 10.9844 13.545 10.9844C13.5448 10.9844 13.5447 10.9844 13.5446 10.9844C13.5253 10.9844 13.5062 10.9854 13.4874 10.9873C13.4021 10.996 13.3223 11.0237 13.2526 11.0663C13.0906 11.165 12.9825 11.3433 12.9825 11.5469C12.9825 11.741 13.0808 11.9122 13.2305 12.0133C13.3202 12.074 13.4285 12.1094 13.545 12.1094C13.5451 12.1094 13.5452 12.1094 13.5453 12.1094C14.448 12.1088 15.3375 12.3258 16.1385 12.7419C16.9395 13.1579 17.6285 13.7609 18.1471 14.4997C18.3255 14.754 18.6764 14.8154 18.9306 14.637C19.1849 14.4585 19.2463 14.1077 19.0679 13.8534C18.4454 12.9666 17.6185 12.2429 16.6571 11.7435C16.4061 11.6131 16.1478 11.499 15.8839 11.4016C16.1139 11.2485 16.3298 11.072 16.5281 10.8737C17.3192 10.0826 17.7637 9.00951 17.7637 7.89062C17.7637 6.77174 17.3192 5.69869 16.5281 4.90752C15.7369 4.11635 14.6638 3.67188 13.545 3.67188Z" fill="#A8D6DA"/>
</g>
</g>
<defs>
<clipPath id="clip0_1044_3698">
<rect width="18.6813" height="18.5834" fill="white" transform="translate(0.626953 0.296875)"/>
</clipPath>
<clipPath id="clip1_1044_3698">
<rect width="18" height="18" fill="white" transform="translate(1.62695 0.296875)"/>
</clipPath>
</defs>
</svg>
