<svg width="20" height="20" viewBox="0 0 20 20" fill="none" xmlns="http://www.w3.org/2000/svg">
<g clip-path="url(#clip0_59_3849)">
<path fill-rule="evenodd" clip-rule="evenodd" d="M4.85024 4.34203C5.18865 4.23191 5.5514 4.22036 5.89613 4.30875C6.24085 4.39713 6.5533 4.58179 6.79698 4.84116C7.04065 5.10052 7.20548 5.42387 7.27221 5.77344C7.33693 6.11249 7.66425 6.33489 8.00331 6.27016C8.34236 6.20544 8.56476 5.87812 8.50004 5.53906C8.38882 4.95646 8.11411 4.41753 7.70799 3.98526C7.30187 3.55299 6.78111 3.24522 6.20657 3.09791C5.63203 2.9506 5.02744 2.96985 4.46343 3.15339C3.89942 3.33693 3.39929 3.67719 3.02148 4.13442C2.64366 4.59164 2.40378 5.14694 2.32984 5.73544C2.2559 6.32394 2.35097 6.92132 2.60393 7.4578C2.77531 7.82124 3.01435 8.14656 3.30653 8.41728C3.20249 8.46122 3.09973 8.50854 2.99839 8.55921C2.26021 8.9283 1.61849 9.46477 1.12441 10.1258C0.917766 10.4023 0.974386 10.794 1.25087 11.0006C1.52736 11.2073 1.91902 11.1507 2.12566 10.8742C2.50315 10.3691 2.99343 9.95923 3.5574 9.67724C4.12138 9.39525 4.74345 9.24895 5.37399 9.25001L5.39247 9.24977L5.43363 9.25C5.77881 9.24965 6.05835 8.96954 6.058 8.62436C6.05765 8.27919 5.77754 7.99965 5.43236 8C5.07649 8.00036 4.72786 7.89944 4.42721 7.70902C4.12657 7.51861 3.88632 7.24656 3.73454 6.92468C3.58276 6.60279 3.52572 6.24436 3.57009 5.89126C3.61445 5.53817 3.75838 5.20499 3.98507 4.93065C4.21176 4.65632 4.51183 4.45216 4.85024 4.34203ZM7.62514 10.9375C7.62514 9.55679 8.74443 8.4375 10.1251 8.4375C11.5059 8.4375 12.6251 9.55679 12.6251 10.9375C12.6251 12.3182 11.5059 13.4375 10.1251 13.4375C8.74443 13.4375 7.62514 12.3182 7.62514 10.9375ZM10.1251 7.1875C8.05407 7.1875 6.37514 8.86643 6.37514 10.9375C6.37514 12.1533 6.95372 13.2339 7.85056 13.9192C7.60641 14.0269 7.36933 14.1523 7.14128 14.2947C6.24639 14.8536 5.52647 15.6526 5.06352 16.6007C4.91206 16.9109 5.04073 17.2851 5.35091 17.4366C5.66108 17.5881 6.03531 17.4594 6.18676 17.1492C6.54698 16.4115 7.10714 15.7898 7.80344 15.3549C8.49975 14.9201 9.30419 14.6895 10.1251 14.6895C10.9461 14.6895 11.7505 14.9201 12.4468 15.3549C13.1431 15.7898 13.7033 16.4115 14.0635 17.1492C14.215 17.4594 14.5892 17.5881 14.8994 17.4366C15.2096 17.2851 15.3382 16.9109 15.1868 16.6007C14.7238 15.6526 14.0039 14.8536 13.109 14.2947C12.8809 14.1523 12.6439 14.0269 12.3997 13.9192C13.2966 13.2339 13.8751 12.1533 13.8751 10.9375C13.8751 8.86643 12.1962 7.1875 10.1251 7.1875ZM15.1047 4.30875C15.4493 4.22036 15.812 4.23191 16.1504 4.34203C16.4887 4.45216 16.7887 4.65632 17.0154 4.93065C17.242 5.20499 17.386 5.53817 17.4303 5.89126C17.4747 6.24436 17.4176 6.60279 17.2659 6.92468C17.1141 7.24656 16.8739 7.51861 16.5733 7.70902C16.2727 7.89944 15.9242 8.00036 15.5683 8C15.2232 7.99965 14.9432 8.27919 14.9428 8.62436C14.9425 8.96954 15.222 9.24965 15.5671 9.25L15.6083 9.24977L15.6267 9.25001C16.2572 9.24895 16.8791 9.39525 17.443 9.67724C18.0069 9.95923 18.4971 10.3691 18.8745 10.8742C19.0811 11.1507 19.4727 11.2073 19.7492 11.0006C20.0256 10.794 20.0822 10.4023 19.8756 10.1258C19.3816 9.46477 18.74 8.9283 18.0019 8.55921C17.9006 8.50853 17.7979 8.46121 17.6938 8.41727C17.986 8.14655 18.225 7.82124 18.3963 7.4578C18.6492 6.92132 18.7443 6.32394 18.6703 5.73544C18.5964 5.14694 18.3566 4.59164 17.9788 4.13442C17.6011 3.67719 17.101 3.33693 16.5371 3.15339C15.9732 2.96985 15.3687 2.9506 14.7943 3.09791C14.2198 3.24522 13.6992 3.55299 13.2931 3.98526C12.887 4.41753 12.6124 4.95646 12.5012 5.53906C12.4365 5.87812 12.6588 6.20544 12.9978 6.27016C13.3368 6.33489 13.6641 6.11249 13.7288 5.77344C13.7955 5.42387 13.9603 5.10052 14.204 4.84116C14.4476 4.58179 14.76 4.39713 15.1047 4.30875Z" fill="#212121"/>
</g>
<defs>
<clipPath id="clip0_59_3849">
<rect width="20" height="20" fill="white"/>
</clipPath>
</defs>
</svg>
