<svg width="28" height="28" viewBox="0 0 28 28" fill="none" xmlns="http://www.w3.org/2000/svg">
<path d="M19.8349 10.7332L25.9167 6.47484C26.0042 6.41354 26.1068 6.37742 26.2133 6.37042C26.3199 6.36343 26.4263 6.38582 26.5211 6.43516C26.6158 6.48451 26.6951 6.55891 26.7505 6.65025C26.8058 6.74159 26.835 6.84637 26.8349 6.95317V21.0465C26.835 21.1533 26.8058 21.2581 26.7505 21.3494C26.6951 21.4408 26.6158 21.5152 26.5211 21.5645C26.4263 21.6139 26.3199 21.6362 26.2133 21.6293C26.1068 21.6223 26.0042 21.5861 25.9167 21.5248L19.8349 17.2665V22.1665C19.8349 22.4759 19.712 22.7727 19.4932 22.9915C19.2744 23.2103 18.9776 23.3332 18.6682 23.3332H2.33488C2.02546 23.3332 1.72871 23.2103 1.50992 22.9915C1.29113 22.7727 1.16821 22.4759 1.16821 22.1665V5.83317C1.16821 5.52375 1.29113 5.22701 1.50992 5.00821C1.72871 4.78942 2.02546 4.6665 2.33488 4.6665H18.6682C18.9776 4.6665 19.2744 4.78942 19.4932 5.00821C19.712 5.22701 19.8349 5.52375 19.8349 5.83317V10.7332ZM19.8349 14.4187L24.5015 17.6853V10.3132L19.8349 13.5798V14.4175V14.4187ZM3.50155 6.99984V20.9998H17.5015V6.99984H3.50155ZM5.83488 9.33317H8.16821V11.6665H5.83488V9.33317Z" fill="white"/>
</svg>
