<svg width="22" height="16" viewBox="0 0 22 16" fill="none" xmlns="http://www.w3.org/2000/svg">
<path fill-rule="evenodd" clip-rule="evenodd" d="M1.76458 0.863226L12.8563 0.858643L13.1542 0.973226C13.3192 1.03739 13.5346 1.13823 13.6354 1.19781C13.7362 1.25739 13.9242 1.41781 14.0525 1.55073C14.1808 1.68823 14.3321 1.88989 14.3917 2.00448C14.4467 2.11906 14.5292 2.29323 14.5658 2.39406C14.6208 2.53614 14.6438 2.86156 14.6896 5.16239L16.7063 3.80573C17.8154 3.06323 18.8283 2.40323 18.9521 2.34364C19.0804 2.28864 19.3142 2.21531 19.4792 2.18781C19.7038 2.14656 19.855 2.14656 20.0979 2.18323C20.2767 2.21531 20.5517 2.30239 20.7167 2.38489C20.8863 2.46739 21.1246 2.63698 21.2712 2.78364C21.4088 2.92114 21.5875 3.14114 21.6608 3.26489C21.7342 3.39323 21.8396 3.62698 22 4.08989V12.2941L21.8946 12.592C21.8396 12.757 21.7342 12.9953 21.6608 13.1191C21.5875 13.2474 21.4088 13.4628 21.2667 13.6003C21.1246 13.7378 20.9092 13.9074 20.7854 13.9761C20.6571 14.0449 20.4142 14.132 20.2354 14.1732C20.02 14.2282 19.8229 14.242 19.6258 14.2236C19.47 14.2099 19.2317 14.1549 19.1033 14.1045C18.9704 14.0586 17.9208 13.3849 14.6896 11.2216L14.6621 12.5141C14.6438 13.5224 14.6208 13.8478 14.5658 13.9899C14.5292 14.0907 14.4467 14.2649 14.3917 14.3795C14.3321 14.4941 14.1808 14.6957 14.0525 14.8332C13.9242 14.9661 13.7362 15.1266 13.6354 15.1861C13.5346 15.2457 13.3192 15.3466 12.8563 15.5253H1.81042L1.5125 15.4107C1.3475 15.3466 1.13208 15.2457 1.03125 15.1861C0.930417 15.1266 0.7425 14.9661 0.614167 14.8332C0.485833 14.6957 0.325417 14.4757 0.26125 14.3474C0.1925 14.2145 0.105417 13.9853 0.06875 13.8432C0.00916667 13.6141 0 12.8395 0 8.19198C0 3.54448 0.00916667 2.76989 0.06875 2.54073C0.105417 2.39864 0.1925 2.16948 0.26125 2.03656C0.325417 1.90823 0.485833 1.68823 0.614167 1.55531C0.7425 1.41781 0.92125 1.26656 1.00833 1.21156C1.09542 1.15656 1.30167 1.05573 1.46667 0.986976L1.76458 0.863226ZM1.64542 2.55906C1.59958 2.61864 1.54458 2.72406 1.51708 2.79739C1.48042 2.87989 1.46667 4.56656 1.46667 8.19198C1.46667 12.4361 1.48042 13.4903 1.52625 13.6141C1.55833 13.692 1.66833 13.8249 1.76458 13.8982L1.93875 14.0357H12.7371C12.9342 13.8845 13.035 13.7836 13.0854 13.7195C13.1771 13.5957 13.1771 13.5224 13.1771 8.19656V2.79739C12.9663 2.52698 12.8333 2.41698 12.7554 2.38489C12.6317 2.33906 11.5775 2.32531 7.32417 2.32531C3.19 2.32989 2.00292 2.34364 1.87917 2.38489C1.79208 2.41698 1.68667 2.49489 1.64542 2.55906ZM17.1004 5.30448L14.6713 6.93156V9.45239C18.4388 11.9732 19.5846 12.7249 19.6533 12.7478C19.7404 12.7753 19.8367 12.7661 19.9833 12.7157C20.1071 12.6745 20.24 12.5828 20.3088 12.4911C20.3729 12.4086 20.4508 12.2666 20.4829 12.1795C20.5196 12.0603 20.5333 11.0153 20.5333 8.19198C20.5333 5.36864 20.5196 4.32364 20.4829 4.20448C20.4508 4.11739 20.3729 3.97531 20.3088 3.89281C20.2446 3.81031 20.1117 3.71406 20.02 3.67739C19.9237 3.64073 19.8183 3.61323 19.7908 3.61323C19.7588 3.61781 19.6854 3.63156 19.6304 3.64989C19.5754 3.66364 18.4388 4.41073 17.1004 5.30448Z" fill="white"/>
</svg>
