<svg width="16" height="10" viewBox="0 0 16 10" fill="none" xmlns="http://www.w3.org/2000/svg">
<path fill-rule="evenodd" clip-rule="evenodd" d="M8 0C5.33371 0 3.46336 1.20453 2.27145 2.39645C1.67693 2.99096 1.24824 3.58461 0.967509 4.03047C0.826899 4.25379 0.722698 4.44117 0.652787 4.57464C0.617813 4.64141 0.591364 4.69479 0.573181 4.73256C0.564087 4.75144 0.557055 4.76643 0.552053 4.77725L0.546066 4.79032L0.544205 4.79445L0.543556 4.7959L0.543302 4.79646C0.543194 4.79671 0.543094 4.79693 0.999983 4.99999L0.543094 4.79693C0.485635 4.92621 0.485635 5.07379 0.543094 5.20307L0.999983 5.00001C0.543094 5.20307 0.543194 5.20329 0.543302 5.20354L0.543556 5.20411L0.544205 5.20555L0.546066 5.20968L0.552053 5.22275C0.557055 5.23357 0.564087 5.24856 0.573181 5.26745C0.591364 5.30521 0.617813 5.35859 0.652787 5.42536C0.722698 5.55883 0.826899 5.74621 0.967509 5.96953C1.24824 6.41539 1.67693 7.00904 2.27145 7.60355C3.46336 8.79547 5.33371 10 8 10C10.6663 10 12.5366 8.79547 13.7286 7.60355C14.3231 7.00904 14.7518 6.41539 15.0325 5.96953C15.1731 5.74621 15.2773 5.55883 15.3472 5.42536C15.3822 5.35859 15.4086 5.30521 15.4268 5.26745C15.4359 5.24856 15.4429 5.23357 15.4479 5.22275L15.4539 5.20968L15.4558 5.20555L15.4564 5.20411L15.4567 5.20354C15.4568 5.20329 15.4569 5.20307 15 5L15.4569 5.20307C15.5144 5.07379 15.5144 4.92621 15.4569 4.79693L15 5C15.4569 4.79693 15.4568 4.79671 15.4567 4.79646L15.4564 4.7959L15.4558 4.79445L15.4539 4.79032L15.4479 4.77725C15.4429 4.76643 15.4359 4.75144 15.4268 4.73256C15.4086 4.69479 15.3822 4.64141 15.3472 4.57464C15.2773 4.44117 15.1731 4.25379 15.0325 4.03047C14.7518 3.58461 14.3231 2.99096 13.7286 2.39645C12.5366 1.20453 10.6663 0 8 0ZM1.81374 5.43672C1.70235 5.25981 1.61788 5.11018 1.55906 5C1.61788 4.88982 1.70235 4.74019 1.81374 4.56328C2.06426 4.16539 2.44807 3.63404 2.97855 3.10355C4.03664 2.04547 5.66629 1 8 1C10.3337 1 11.9634 2.04547 13.0214 3.10355C13.5519 3.63404 13.9357 4.16539 14.1863 4.56328C14.2976 4.74019 14.3821 4.88982 14.4409 5C14.3821 5.11018 14.2976 5.25981 14.1863 5.43672C13.9357 5.83461 13.5519 6.36596 13.0214 6.89645C11.9634 7.95453 10.3337 9 8 9C5.66629 9 4.03664 7.95453 2.97855 6.89645C2.44807 6.36596 2.06426 5.83461 1.81374 5.43672ZM6 5C6 3.89543 6.89543 3 8 3C9.10457 3 10 3.89543 10 5C10 6.10457 9.10457 7 8 7C6.89543 7 6 6.10457 6 5ZM8 2C6.34315 2 5 3.34315 5 5C5 6.65685 6.34315 8 8 8C9.65685 8 11 6.65685 11 5C11 3.34315 9.65685 2 8 2Z" fill="black"/>
</svg>
