<svg width="20" height="20" viewBox="0 0 20 20" fill="none" xmlns="http://www.w3.org/2000/svg">
<path fill-rule="evenodd" clip-rule="evenodd" d="M4.93674 3.50077C6.52227 2.26967 8.50264 1.65963 10.5061 1.78519C12.5095 1.91074 14.3982 2.76326 15.8176 4.18268C17.2371 5.6021 18.0896 7.49082 18.2151 9.49425C18.3407 11.4977 17.7307 13.4781 16.4996 15.0636C15.2685 16.6491 13.501 17.7308 11.5289 18.1055C9.55678 18.4802 7.51574 18.1222 5.78892 17.0986C5.61208 16.9938 5.39998 16.9662 5.20219 17.0222L2.09973 17.9006L2.97814 14.7981C3.03414 14.6004 3.0065 14.3882 2.90169 14.2114C1.87817 12.4846 1.52016 10.4435 1.89486 8.47146C2.26956 6.49938 3.35121 4.73187 4.93674 3.50077ZM10.5999 0.288127C8.23179 0.139717 5.89094 0.860794 4.0168 2.31599C2.14266 3.77118 0.86413 5.86041 0.421224 8.19147C-0.00128987 10.4152 0.364368 12.7131 1.44923 14.692L0.655412 17.4958L0.654344 17.4995C0.580303 17.755 0.576021 18.0258 0.641974 18.2836C0.708243 18.5427 0.842981 18.7792 1.03207 18.9683C1.22116 19.1573 1.45763 19.2921 1.71669 19.3584C1.97457 19.4243 2.24538 19.42 2.501 19.3459L2.50454 19.3449L5.30834 18.5511C7.28723 19.636 9.58513 20.0016 11.8089 19.5791C14.1399 19.1362 16.2291 17.8577 17.6843 15.9835C19.1395 14.1094 19.8606 11.7685 19.7122 9.40043C19.5638 7.03232 18.5561 4.79981 16.8783 3.12202C15.2005 1.44423 12.968 0.436536 10.5999 0.288127ZM6.0518 6.42189C6.38914 6.08575 6.84117 5.8911 7.31567 5.87603L8.38088 7.73332C8.38148 7.73459 8.38178 7.73598 8.38176 7.73739C8.38175 7.73831 8.3816 7.73921 8.38133 7.74008C8.38114 7.74069 8.38089 7.74128 8.38057 7.74184L8.38044 7.74206L7.50054 9.21169C7.37456 9.42209 7.35941 9.68079 7.45995 9.90446C7.98657 11.076 8.92438 12.0138 10.0959 12.5404C10.3196 12.6409 10.5783 12.6258 10.7887 12.4998L12.2583 11.6199L12.2585 11.6198C12.2599 11.619 12.2614 11.6186 12.263 11.6186C12.2644 11.6186 12.2658 11.6189 12.267 11.6195L14.124 12.6845C14.1068 13.1582 13.9114 13.609 13.5757 13.9458C13.2258 14.297 12.7517 14.4961 12.256 14.5001C11.3686 14.5021 10.4895 14.3288 9.66915 13.9902C8.84829 13.6514 8.10246 13.1538 7.47453 12.5258C6.84659 11.8979 6.34892 11.1521 6.01012 10.3312C5.67136 9.51046 5.49809 8.63089 5.50026 7.743C5.50214 7.24702 5.70045 6.77198 6.0518 6.42189ZM8.07948 4.56407C7.86501 4.43896 7.62091 4.37371 7.37267 4.37508C6.48059 4.37576 5.62501 4.72961 4.99304 5.35933C4.36045 5.98966 4.00346 6.84501 4.00027 7.73803L4.00027 7.73883C3.99755 8.82447 4.20938 9.89996 4.62358 10.9035C5.03778 11.907 5.6462 12.8188 6.41387 13.5865C7.18154 14.3542 8.09333 14.9626 9.09686 15.3768C10.1004 15.791 11.1759 16.0028 12.2615 16.0001L12.265 16.0001C13.1563 15.9937 14.0091 15.636 14.6383 15.0046C15.2671 14.3736 15.6217 13.52 15.6253 12.6292C15.6269 12.3805 15.5617 12.1358 15.4363 11.9209C15.3117 11.7072 15.1322 11.5308 14.9166 11.4099L13.0078 10.3151L13.0016 10.3116C12.7705 10.182 12.5094 10.1154 12.2444 10.1187C11.9795 10.122 11.7201 10.1949 11.4923 10.3303L11.49 10.3316L10.3739 10.9998C9.8035 10.6707 9.32969 10.1968 9.00051 9.62645L9.66875 8.51035L9.67009 8.5081C9.80541 8.28028 9.87837 8.02086 9.88164 7.75591C9.88492 7.49095 9.81838 7.22981 9.68872 6.99872L9.68524 6.99257L8.59048 5.08377C8.46952 4.86813 8.29311 4.68869 8.07948 4.56407Z" fill="white"/>
</svg>
