<svg width="1330" height="532" viewBox="0 0 1330 532" fill="none" xmlns="http://www.w3.org/2000/svg">
<g opacity="0.3">
<path fill-rule="evenodd" clip-rule="evenodd" d="M320.325 175.059V146.733H128.825V439.723H323.948V411.396H159.588V303.715H299.78V276.613H159.588V175.059H320.325Z" fill="white"/>
<path fill-rule="evenodd" clip-rule="evenodd" d="M560.825 439.711V175.048H662.745V146.716H427.74V175.048H529.66V439.711H560.825Z" fill="white"/>
<path fill-rule="evenodd" clip-rule="evenodd" d="M1012.82 439.711V146.716H981.66V275.78H815.018V146.716H784.261V439.711H815.018V304.112H981.66V439.711H1012.82Z" fill="white"/>
<path fill-rule="evenodd" clip-rule="evenodd" d="M1162.53 439.717H1193.31V147.135H1162.53V439.717Z" fill="white"/>
<path fill-rule="evenodd" clip-rule="evenodd" d="M1269.89 43.5574V70.4907H1303.43V505.061H26.5653V70.4907H1085.94V43.5574H0V532H1330V43.5574H1269.89Z" fill="white"/>
<path fill-rule="evenodd" clip-rule="evenodd" d="M1164.64 114.047H1191.2V70.4929H1234.16V43.5596H1191.2V0H1164.64V43.5596H1121.67V70.4929H1164.64V114.047Z" fill="#71D1D0"/>
</g>
</svg>
