<svg width="42" height="42" viewBox="0 0 42 42" fill="none" xmlns="http://www.w3.org/2000/svg">
<rect width="42" height="42" rx="21" fill="#FFFEE6"/>
<path d="M25.1251 16.875V16.8841M13.6667 17.3333C13.6667 16.3608 14.0531 15.4282 14.7407 14.7406C15.4283 14.0529 16.361 13.6666 17.3334 13.6666H24.6667C25.6392 13.6666 26.5718 14.0529 27.2595 14.7406C27.9471 15.4282 28.3334 16.3608 28.3334 17.3333V24.6666C28.3334 25.6391 27.9471 26.5717 27.2595 27.2594C26.5718 27.947 25.6392 28.3333 24.6667 28.3333H17.3334C16.361 28.3333 15.4283 27.947 14.7407 27.2594C14.0531 26.5717 13.6667 25.6391 13.6667 24.6666V17.3333ZM18.2501 21C18.2501 21.7293 18.5398 22.4288 19.0555 22.9445C19.5713 23.4602 20.2707 23.75 21.0001 23.75C21.7294 23.75 22.4289 23.4602 22.9446 22.9445C23.4604 22.4288 23.7501 21.7293 23.7501 21C23.7501 20.2706 23.4604 19.5711 22.9446 19.0554C22.4289 18.5397 21.7294 18.25 21.0001 18.25C20.2707 18.25 19.5713 18.5397 19.0555 19.0554C18.5398 19.5711 18.2501 20.2706 18.2501 21Z" stroke="#28293D" stroke-width="1.5" stroke-linecap="round" stroke-linejoin="round"/>
</svg>
