<svg width="42" height="42" viewBox="0 0 42 42" fill="none" xmlns="http://www.w3.org/2000/svg">
<rect width="42" height="42" rx="21" fill="#FFFEE6"/>
<path d="M17.3334 20.0833V24.6666M17.3334 17.3333V17.3425M21.0001 24.6666V20.0833M24.6667 24.6666V21.9166C24.6667 21.4304 24.4736 20.9641 24.1298 20.6203C23.786 20.2764 23.3196 20.0833 22.8334 20.0833C22.3472 20.0833 21.8809 20.2764 21.5371 20.6203C21.1932 20.9641 21.0001 21.4304 21.0001 21.9166M13.6667 15.5C13.6667 15.0137 13.8599 14.5474 14.2037 14.2036C14.5475 13.8598 15.0139 13.6666 15.5001 13.6666H26.5001C26.9863 13.6666 27.4526 13.8598 27.7964 14.2036C28.1403 14.5474 28.3334 15.0137 28.3334 15.5V26.5C28.3334 26.9862 28.1403 27.4525 27.7964 27.7963C27.4526 28.1401 26.9863 28.3333 26.5001 28.3333H15.5001C15.0139 28.3333 14.5475 28.1401 14.2037 27.7963C13.8599 27.4525 13.6667 26.9862 13.6667 26.5V15.5Z" stroke="#28293D" stroke-width="1.5" stroke-linecap="round" stroke-linejoin="round"/>
</svg>
