<svg width="128" height="51" viewBox="0 0 128 51" fill="none" xmlns="http://www.w3.org/2000/svg">
<path fill-rule="evenodd" clip-rule="evenodd" d="M30.8297 16.6172V13.9283H12.3997V41.7405H31.1784V39.0516H15.3603V28.83H28.8525V26.2572H15.3603V16.6172H30.8297Z" fill="#55725D"/>
<path fill-rule="evenodd" clip-rule="evenodd" d="M53.972 41.7395V16.6162H63.7808V13.9267H41.1638V16.6162H50.9726V41.7395H53.972Z" fill="#55725D"/>
<path fill-rule="evenodd" clip-rule="evenodd" d="M97.4725 41.7395V13.9267H94.4737V26.1782H78.4359V13.9267H75.4758V41.7395H78.4359V28.8677H94.4737V41.7395H97.4725Z" fill="#55725D"/>
<path fill-rule="evenodd" clip-rule="evenodd" d="M111.884 41.7397H114.844V13.9662H111.884V41.7397Z" fill="#55725D"/>
<path fill-rule="evenodd" clip-rule="evenodd" d="M122.215 4.13416V6.69081H125.443V47.9426H2.55666V6.69081H104.512V4.13416H0V50.4999H128V4.13416H122.215Z" fill="#55725D"/>
<path fill-rule="evenodd" clip-rule="evenodd" d="M112.087 10.826H114.643V6.69158H118.778V4.13492H114.643V0H112.087V4.13492H107.952V6.69158H112.087V10.826Z" fill="#EBBABA"/>
</svg>
