<svg width="42" height="42" viewBox="0 0 42 42" fill="none" xmlns="http://www.w3.org/2000/svg">
<rect width="42" height="42" rx="21" fill="#FFFEE6"/>
<path d="M30.1666 13.6758C29.2499 14.125 28.3516 14.3074 27.4166 14.5833C26.389 13.4238 24.8655 13.3596 23.4016 13.9078C21.9377 14.4559 20.9788 15.7961 20.9999 17.3333V18.25C18.0253 18.3261 15.3762 16.9713 13.6666 14.5833C13.6666 14.5833 9.83309 21.3969 17.3333 24.6667C15.6173 25.8098 13.9058 26.5807 11.8333 26.5C14.8656 28.1528 18.1702 28.7211 21.0311 27.8906C24.3128 26.9373 27.0096 24.4778 28.0445 20.7938C28.3532 19.6733 28.5065 18.5157 28.5001 17.3535C28.5001 17.1253 29.8843 14.8125 30.1666 13.6749V13.6758Z" stroke="#28293D" stroke-width="1.5" stroke-linecap="round" stroke-linejoin="round"/>
</svg>
